{
  "accessors": [
    {
      "bufferView": 2,
      "componentType": 5126,
      "count": 3288,
      "max": [
        1.5146430730819702,
        1.5673987865447998,
        1.5146429538726807
      ],
      "min": [
        -1.5146430730819702,
        -0.9999985098838806,
        -1.5146434307098389
      ],
      "type": "VEC3"
    },
    {
      "bufferView": 2,
      "byteOffset": 39456,
      "componentType": 5126,
      "count": 3288,
      "max": [
        1.0,
        0.3731546998023987,
        1.0
      ],
      "min": [
        -1.0,
        -0.9997878670692444,
        -1.0
      ],
      "type": "VEC3"
    },
    {
      "bufferView": 1,
      "componentType": 5126,
      "count": 3288,
      "max": [
        0.6540394425392151,
        0.9977893829345703
      ],
      "min": [
        -0.23373347520828247,
        0.3125
      ],
      "type": "VEC2"
    },
    {
      "bufferView": 0,
      "componentType": 5125,
      "count": 18498,
      "type": "SCALAR"
    },
    {
      "bufferView": 2,
      "byteOffset": 78912,
      "componentType": 5126,
      "count": 20,
      "max": [
        1.0,
        -0.9999985098838806,
        1.0000001192092896
      ],
      "min": [
        -1.000000238418579,
        -0.9999985098838806,
        -1.0000004768371582
      ],
      "type": "VEC3"
    },
    {
      "bufferView": 2,
      "byteOffset": 79152,
      "componentType": 5126,
      "count": 20,
      "max": [
        0.02059919759631157,
        -0.9997878074645996,
        0.020599260926246643
      ],
      "min": [
        -0.020599210634827614,
        -0.9997878670692444,
        -0.020599177107214928
      ],
      "type": "VEC3"
    },
    {
      "bufferView": 1,
      "byteOffset": 26304,
      "componentType": 5126,
      "count": 20,
      "max": [
        0.65625,
        0.3125
      ],
      "min": [
        0.3437499701976776,
        -7.450580596923828e-08
      ],
      "type": "VEC2"
    },
    {
      "bufferView": 0,
      "byteOffset": 73992,
      "componentType": 5125,
      "count": 54,
      "type": "SCALAR"
    },
    {
      "bufferView": 2,
      "byteOffset": 79392,
      "componentType": 5126,
      "count": 1440,
      "max": [
        1.5150667428970337,
        1.7914459705352783,
        1.5150666236877441
      ],
      "min": [
        -1.5150667428970337,
        -0.8145662546157837,
        -1.5150671005249023
      ],
      "type": "VEC3"
    },
    {
      "bufferView": 2,
      "byteOffset": 96672,
      "componentType": 5126,
      "count": 1440,
      "max": [
        0.9999533891677856,
        1.0,
        0.9999533891677856
      ],
      "min": [
        -0.9999533891677856,
        -0.3901367783546448,
        -0.9999533891677856
      ],
      "type": "VEC3"
    },
    {
      "bufferView": 1,
      "byteOffset": 26464,
      "componentType": 5126,
      "count": 1440,
      "max": [
        0.65625,
        1.0
      ],
      "min": [
        0.3437499701976776,
        0.6874999403953552
      ],
      "type": "VEC2"
    },
    {
      "bufferView": 0,
      "byteOffset": 74208,
      "componentType": 5125,
      "count": 6954,
      "type": "SCALAR"
    },
    {
      "bufferView": 2,
      "byteOffset": 113952,
      "componentType": 5126,
      "count": 525,
      "max": [
        0.9877641797065735,
        6.346987724304199,
        0.9877642393112183
      ],
      "min": [
        -0.9877643585205078,
        -1.000030517578125,
        -0.9877645969390869
      ],
      "type": "VEC3"
    },
    {
      "bufferView": 2,
      "byteOffset": 120252,
      "componentType": 5126,
      "count": 525,
      "max": [
        0.9998310804367065,
        0.9954779148101807,
        0.9998310208320618
      ],
      "min": [
        -0.9998310208320618,
        -1.0,
        -0.9998310804367065
      ],
      "type": "VEC3"
    },
    {
      "bufferView": 1,
      "byteOffset": 37984,
      "componentType": 5126,
      "count": 525,
      "max": [
        0.9806496500968933,
        0.9860691428184509
      ],
      "min": [
        0.02069970965385437,
        0.020652880892157555
      ],
      "type": "VEC2"
    },
    {
      "bufferView": 1,
      "byteOffset": 42184,
      "componentType": 5126,
      "count": 525,
      "max": [
        0.9806496500968933,
        0.9860691428184509
      ],
      "min": [
        0.02069970965385437,
        0.020652880892157555
      ],
      "type": "VEC2"
    },
    {
      "bufferView": 0,
      "byteOffset": 102024,
      "componentType": 5125,
      "count": 2640,
      "type": "SCALAR"
    }
  ],
  "asset": {
    "extras": {
      "author": "Siriphat (https://sketchfab.com/Siriphat.Chimchan)",
      "license": "CC-BY-4.0 (http://creativecommons.org/licenses/by/4.0/)",
      "source": "https://sketchfab.com/3d-models/green-curry-thai-121310a3fb834e0791a35c95d5b5ec30",
      "title": "Green Curry Thai"
    },
    "generator": "Sketchfab-12.68.0",
    "version": "2.0"
  },
  "bufferViews": [
    {
      "buffer": 0,
      "byteLength": 112584,
      "name": "floatBufferViews",
      "target": 34963
    },
    {
      "buffer": 0,
      "byteLength": 46384,
      "byteOffset": 112584,
      "byteStride": 8,
      "name": "floatBufferViews",
      "target": 34962
    },
    {
      "buffer": 0,
      "byteLength": 126552,
      "byteOffset": 158968,
      "byteStride": 12,
      "name": "floatBufferViews",
      "target": 34962
    }
  ],
  "buffers": [
    {
      "byteLength": 285520,
      "uri": "scene.bin"
    }
  ],
  "images": [
    {
      "uri": "textures/lambert4_baseColor.png"
    }
  ],
  "materials": [
    {
      "doubleSided": true,
      "name": "lambert2",
      "pbrMetallicRoughness": {
        "metallicFactor": 0.0,
        "roughnessFactor": 0.6
      }
    },
    {
      "doubleSided": true,
      "name": "phongE3",
      "pbrMetallicRoughness": {
        "baseColorFactor": [
          1.0,
          0.275382,
          0.058,
          1.0
        ],
        "metallicFactor": 0.0,
        "roughnessFactor": 0.8942628736559436
      }
    },
    {
      "doubleSided": true,
      "name": "phongE2",
      "pbrMetallicRoughness": {
        "baseColorFactor": [
          1.0,
          0.275382,
          0.058,
          1.0
        ],
        "metallicFactor": 0.0,
        "roughnessFactor": 0.8942628736559436
      }
    },
    {
      "doubleSided": true,
      "name": "lambert4",
      "pbrMetallicRoughness": {
        "baseColorTexture": {
          "index": 0
        },
        "metallicFactor": 0.0,
        "roughnessFactor": 0.6
      }
    }
  ],
  "meshes": [
    {
      "name": "pCylinder1_lambert2_0",
      "primitives": [
        {
          "attributes": {
            "NORMAL": 1,
            "POSITION": 0,
            "TEXCOORD_0": 2
          },
          "indices": 3,
          "material": 0,
          "mode": 4
        }
      ]
    },
    {
      "name": "pCylinder1_phongE3_0",
      "primitives": [
        {
          "attributes": {
            "NORMAL": 5,
            "POSITION": 4,
            "TEXCOORD_0": 6
          },
          "indices": 7,
          "material": 1,
          "mode": 4
        }
      ]
    },
    {
      "name": "pCylinder1_phongE2_0",
      "primitives": [
        {
          "attributes": {
            "NORMAL": 9,
            "POSITION": 8,
            "TEXCOORD_0": 10
          },
          "indices": 11,
          "material": 2,
          "mode": 4
        }
      ]
    },
    {
      "name": "pCylinder2_lambert4_0",
      "primitives": [
        {
          "attributes": {
            "NORMAL": 13,
            "POSITION": 12,
            "TEXCOORD_0": 14,
            "TEXCOORD_1": 15
          },
          "indices": 16,
          "material": 3,
          "mode": 4
        }
      ]
    }
  ],
  "nodes": [
    {
      "children": [
        1
      ],
      "matrix": [
        1.0,
        0.0,
        0.0,
        0.0,
        0.0,
        2.220446049250313e-16,
        -1.0,
        0.0,
        0.0,
        1.0,
        2.220446049250313e-16,
        0.0,
        0.0,
        0.0,
        0.0,
        1.0
      ],
      "name": "Sketchfab_model"
    },
    {
      "children": [
        2
      ],
      "matrix": [
        1.0,
        0.0,
        0.0,
        0.0,
        0.0,
        0.0,
        1.0,
        0.0,
        0.0,
        -1.0,
        0.0,
        0.0,
        0.0,
        0.0,
        0.0,
        1.0
      ],
      "name": "63aa993f20194a5ba5fa0681310a338a.fbx"
    },
    {
      "children": [
        3,
        7
      ],
      "name": "RootNode"
    },
    {
      "children": [
        4,
        5,
        6
      ],
      "matrix": [
        2.928281784057617,
        0.0,
        0.0,
        0.0,
        0.0,
        1.024384617805481,
        0.0,
        0.0,
        0.0,
        0.0,
        2.928281784057617,
        0.0,
        0.0,
        1.0666024684906006,
        0.0,
        1.0
      ],
      "name": "pCylinder1"
    },
    {
      "mesh": 0,
      "name": "pCylinder1_lambert2_0"
    },
    {
      "mesh": 1,
      "name": "pCylinder1_phongE3_0"
    },
    {
      "mesh": 2,
      "name": "pCylinder1_phongE2_0"
    },
    {
      "children": [
        8
      ],
      "matrix": [
        4.3190741539001465,
        0.0,
        0.0,
        0.0,
        0.0,
        0.0982583537697792,
        0.0,
        0.0,
        0.0,
        0.0,
        4.3190741539001465,
        0.0,
        0.0,
        2.048431396484375,
        0.0,
        1.0
      ],
      "name": "pCylinder2"
    },
    {
      "mesh": 3,
      "name": "pCylinder2_lambert4_0"
    }
  ],
  "samplers": [
    {
      "magFilter": 9729,
      "minFilter": 9987,
      "wrapS": 10497,
      "wrapT": 10497
    }
  ],
  "scene": 0,
  "scenes": [
    {
      "name": "Sketchfab_Scene",
      "nodes": [
        0
      ]
    }
  ],
  "textures": [
    {
      "sampler": 0,
      "source": 0
    }
  ]
}
