{
  "accessors": [
    {
      "bufferView": 2,
      "componentType": 5126,
      "count": 452,
      "max": [
        0.17609280347824097,
        0.016100941225886345,
        0.17609280347824097
      ],
      "min": [
        -0.1760927438735962,
        -0.02756970189511776,
        -0.17609280347824097
      ],
      "type": "VEC3"
    },
    {
      "bufferView": 2,
      "byteOffset": 5424,
      "componentType": 5126,
      "count": 452,
      "max": [
        0.9040967226028442,
        0.9926528334617615,
        0.9040967226028442
      ],
      "min": [
        -0.9040967226028442,
        -0.9780135154724121,
        -0.9040967226028442
      ],
      "type": "VEC3"
    },
    {
      "bufferView": 1,
      "componentType": 5126,
      "count": 452,
      "max": [
        0.9908321499824524,
        0.992079496383667
      ],
      "min": [
        0.013634830713272095,
        0.013529959134757519
      ],
      "type": "VEC2"
    },
    {
      "bufferView": 1,
      "byteOffset": 3616,
      "componentType": 5126,
      "count": 452,
      "max": [
        0.9908321499824524,
        0.992079496383667
      ],
      "min": [
        0.013634830713272095,
        0.013529959134757519
      ],
      "type": "VEC2"
    },
    {
      "bufferView": 1,
      "byteOffset": 7232,
      "componentType": 5126,
      "count": 452,
      "max": [
        0.9908321499824524,
        0.992079496383667
      ],
      "min": [
        0.013634830713272095,
        0.013529959134757519
      ],
      "type": "VEC2"
    },
    {
      "bufferView": 0,
      "componentType": 5125,
      "count": 2292,
      "type": "SCALAR"
    },
    {
      "bufferView": 2,
      "byteOffset": 10848,
      "componentType": 5126,
      "count": 845,
      "max": [
        0.15041187405586243,
        0.16515280306339264,
        0.15041182935237885
      ],
      "min": [
        -0.15041176974773407,
        -0.014526869170367718,
        -0.1504117250442505
      ],
      "type": "VEC3"
    },
    {
      "bufferView": 2,
      "byteOffset": 20988,
      "componentType": 5126,
      "count": 845,
      "max": [
        0.9954124689102173,
        1.0,
        0.9954124689102173
      ],
      "min": [
        -0.9954124689102173,
        -1.0,
        -0.9954124689102173
      ],
      "type": "VEC3"
    },
    {
      "bufferView": 1,
      "byteOffset": 10848,
      "componentType": 5126,
      "count": 845,
      "max": [
        0.9904174208641052,
        0.9848775267601013
      ],
      "min": [
        0.014091292396187782,
        0.008223834447562695
      ],
      "type": "VEC2"
    },
    {
      "bufferView": 1,
      "byteOffset": 17608,
      "componentType": 5126,
      "count": 845,
      "max": [
        0.9904174208641052,
        0.9848775267601013
      ],
      "min": [
        0.014091292396187782,
        0.008223834447562695
      ],
      "type": "VEC2"
    },
    {
      "bufferView": 1,
      "byteOffset": 24368,
      "componentType": 5126,
      "count": 845,
      "max": [
        0.9904174208641052,
        0.9848775267601013
      ],
      "min": [
        0.014091292396187782,
        0.008223834447562695
      ],
      "type": "VEC2"
    },
    {
      "bufferView": 0,
      "byteOffset": 9168,
      "componentType": 5125,
      "count": 4122,
      "type": "SCALAR"
    }
  ],
  "asset": {
    "extras": {
      "author": "shtran (https://sketchfab.com/shtran)",
      "license": "CC-BY-4.0 (http://creativecommons.org/licenses/by/4.0/)",
      "source": "https://sketchfab.com/3d-models/food-cover-cloche-plate-platter-3ac8550c8f834e3698321f7a3f462e0b",
      "title": "Food Cover Cloche Plate Platter"
    },
    "generator": "Sketchfab-12.67.0",
    "version": "2.0"
  },
  "bufferViews": [
    {
      "buffer": 0,
      "byteLength": 25656,
      "name": "floatBufferViews",
      "target": 34963
    },
    {
      "buffer": 0,
      "byteLength": 31128,
      "byteOffset": 25656,
      "byteStride": 8,
      "name": "floatBufferViews",
      "target": 34962
    },
    {
      "buffer": 0,
      "byteLength": 31128,
      "byteOffset": 56784,
      "byteStride": 12,
      "name": "floatBufferViews",
      "target": 34962
    }
  ],
  "buffers": [
    {
      "byteLength": 87912,
      "uri": "scene.bin"
    }
  ],
  "materials": [
    {
      "doubleSided": true,
      "name": "cloche",
      "pbrMetallicRoughness": {
        "roughnessFactor": 0.11115316564215749
      }
    }
  ],
  "meshes": [
    {
      "name": "Object_0",
      "primitives": [
        {
          "attributes": {
            "NORMAL": 1,
            "POSITION": 0,
            "TEXCOORD_0": 2,
            "TEXCOORD_1": 3,
            "TEXCOORD_2": 4
          },
          "indices": 5,
          "material": 0,
          "mode": 4
        }
      ]
    },
    {
      "name": "Object_1",
      "primitives": [
        {
          "attributes": {
            "NORMAL": 7,
            "POSITION": 6,
            "TEXCOORD_0": 8,
            "TEXCOORD_1": 9,
            "TEXCOORD_2": 10
          },
          "indices": 11,
          "material": 0,
          "mode": 4
        }
      ]
    }
  ],
  "nodes": [
    {
      "children": [
        1
      ],
      "matrix": [
        1.0,
        0.0,
        0.0,
        0.0,
        0.0,
        2.220446049250313e-16,
        -1.0,
        0.0,
        0.0,
        1.0,
        2.220446049250313e-16,
        0.0,
        0.0,
        0.0,
        0.0,
        1.0
      ],
      "name": "Sketchfab_model"
    },
    {
      "children": [
        2
      ],
      "name": "root"
    },
    {
      "children": [
        3,
        5
      ],
      "matrix": [
        1.0,
        0.0,
        0.0,
        0.0,
        0.0,
        2.220446049250313e-16,
        1.0,
        0.0,
        0.0,
        -1.0,
        2.220446049250313e-16,
        0.0,
        0.0,
        0.0,
        0.0,
        1.0
      ],
      "name": "GLTF_SceneRootNode"
    },
    {
      "children": [
        4
      ],
      "name": "plate_0"
    },
    {
      "mesh": 0,
      "name": "Object_4"
    },
    {
      "children": [
        6
      ],
      "matrix": [
        1.0,
        0.0,
        0.0,
        0.0,
        0.0,
        1.0,
        0.0,
        0.0,
        0.0,
        0.0,
        1.0,
        0.0,
        0.0,
        0.01989259198307991,
        0.0,
        1.0
      ],
      "name": "dome_1"
    },
    {
      "mesh": 1,
      "name": "Object_6"
    }
  ],
  "scene": 0,
  "scenes": [
    {
      "name": "Sketchfab_Scene",
      "nodes": [
        0
      ]
    }
  ]
}
