{
  "accessors": [
    {
      "bufferView": 2,
      "componentType": 5126,
      "count": 65532,
      "max": [
        0.14664588868618011,
        0.10371217131614685,
        0.13413968682289124
      ],
      "min": [
        -0.14664550125598907,
        -0.005273424554616213,
        -0.1297186315059662
      ],
      "type": "VEC3"
    },
    {
      "bufferView": 2,
      "byteOffset": 786384,
      "componentType": 5126,
      "count": 65532,
      "max": [
        0.9999412298202515,
        1.0,
        0.9999567270278931
      ],
      "min": [
        -0.9998933672904968,
        -0.9999179840087891,
        -0.9997243881225586
      ],
      "type": "VEC3"
    },
    {
      "bufferView": 1,
      "componentType": 5126,
      "count": 65532,
      "max": [
        0.9977108240127563,
        0.9979089498519897
      ],
      "min": [
        0.002080373466014862,
        0.0022510290145874023
      ],
      "type": "VEC2"
    },
    {
      "bufferView": 1,
      "byteOffset": 524256,
      "componentType": 5126,
      "count": 65532,
      "max": [
        0.9977108240127563,
        0.9979089498519897
      ],
      "min": [
        0.002080373466014862,
        0.0022510290145874023
      ],
      "type": "VEC2"
    },
    {
      "bufferView": 1,
      "byteOffset": 1048512,
      "componentType": 5126,
      "count": 65532,
      "max": [
        0.9977108240127563,
        0.9979089498519897
      ],
      "min": [
        0.002080373466014862,
        0.0022510290145874023
      ],
      "type": "VEC2"
    },
    {
      "bufferView": 1,
      "byteOffset": 1572768,
      "componentType": 5126,
      "count": 65532,
      "max": [
        0.9977108240127563,
        0.9979089498519897
      ],
      "min": [
        0.002080373466014862,
        0.0022510290145874023
      ],
      "type": "VEC2"
    },
    {
      "bufferView": 1,
      "byteOffset": 2097024,
      "componentType": 5126,
      "count": 65532,
      "max": [
        0.9977108240127563,
        0.9979089498519897
      ],
      "min": [
        0.002080373466014862,
        0.0022510290145874023
      ],
      "type": "VEC2"
    },
    {
      "bufferView": 1,
      "byteOffset": 2621280,
      "componentType": 5126,
      "count": 65532,
      "max": [
        0.9977108240127563,
        0.9979089498519897
      ],
      "min": [
        0.002080373466014862,
        0.0022510290145874023
      ],
      "type": "VEC2"
    },
    {
      "bufferView": 1,
      "byteOffset": 3145536,
      "componentType": 5126,
      "count": 65532,
      "max": [
        0.9977108240127563,
        0.9979089498519897
      ],
      "min": [
        0.002080373466014862,
        0.0022510290145874023
      ],
      "type": "VEC2"
    },
    {
      "bufferView": 1,
      "byteOffset": 3669792,
      "componentType": 5126,
      "count": 65532,
      "max": [
        0.9977108240127563,
        0.9979089498519897
      ],
      "min": [
        0.002080373466014862,
        0.0022510290145874023
      ],
      "type": "VEC2"
    },
    {
      "bufferView": 1,
      "byteOffset": 4194048,
      "componentType": 5126,
      "count": 65532,
      "max": [
        0.9977108240127563,
        0.9979089498519897
      ],
      "min": [
        0.002080373466014862,
        0.0022510290145874023
      ],
      "type": "VEC2"
    },
    {
      "bufferView": 1,
      "byteOffset": 4718304,
      "componentType": 5126,
      "count": 65532,
      "max": [
        0.9977108240127563,
        0.9979089498519897
      ],
      "min": [
        0.002080373466014862,
        0.0022510290145874023
      ],
      "type": "VEC2"
    },
    {
      "bufferView": 0,
      "componentType": 5125,
      "count": 352833,
      "type": "SCALAR"
    },
    {
      "bufferView": 2,
      "byteOffset": 1572768,
      "componentType": 5126,
      "count": 65532,
      "max": [
        0.14592140913009644,
        0.10406510531902313,
        0.13406045734882355
      ],
      "min": [
        -0.14663924276828766,
        -0.006033431738615036,
        -0.13407163321971893
      ],
      "type": "VEC3"
    },
    {
      "bufferView": 2,
      "byteOffset": 2359152,
      "componentType": 5126,
      "count": 65532,
      "max": [
        0.9995302557945251,
        0.9999997019767761,
        0.9997699856758118
      ],
      "min": [
        -0.9999498128890991,
        -0.9878963828086853,
        -0.9998778700828552
      ],
      "type": "VEC3"
    },
    {
      "bufferView": 1,
      "byteOffset": 5242560,
      "componentType": 5126,
      "count": 65532,
      "max": [
        0.9969516396522522,
        0.9979190826416016
      ],
      "min": [
        0.00212937593460083,
        0.07706654071807861
      ],
      "type": "VEC2"
    },
    {
      "bufferView": 1,
      "byteOffset": 5766816,
      "componentType": 5126,
      "count": 65532,
      "max": [
        0.9969516396522522,
        0.9979190826416016
      ],
      "min": [
        0.00212937593460083,
        0.07706654071807861
      ],
      "type": "VEC2"
    },
    {
      "bufferView": 1,
      "byteOffset": 6291072,
      "componentType": 5126,
      "count": 65532,
      "max": [
        0.9969516396522522,
        0.9979190826416016
      ],
      "min": [
        0.00212937593460083,
        0.07706654071807861
      ],
      "type": "VEC2"
    },
    {
      "bufferView": 1,
      "byteOffset": 6815328,
      "componentType": 5126,
      "count": 65532,
      "max": [
        0.9969516396522522,
        0.9979190826416016
      ],
      "min": [
        0.00212937593460083,
        0.07706654071807861
      ],
      "type": "VEC2"
    },
    {
      "bufferView": 1,
      "byteOffset": 7339584,
      "componentType": 5126,
      "count": 65532,
      "max": [
        0.9969516396522522,
        0.9979190826416016
      ],
      "min": [
        0.00212937593460083,
        0.07706654071807861
      ],
      "type": "VEC2"
    },
    {
      "bufferView": 1,
      "byteOffset": 7863840,
      "componentType": 5126,
      "count": 65532,
      "max": [
        0.9969516396522522,
        0.9979190826416016
      ],
      "min": [
        0.00212937593460083,
        0.07706654071807861
      ],
      "type": "VEC2"
    },
    {
      "bufferView": 1,
      "byteOffset": 8388096,
      "componentType": 5126,
      "count": 65532,
      "max": [
        0.9969516396522522,
        0.9979190826416016
      ],
      "min": [
        0.00212937593460083,
        0.07706654071807861
      ],
      "type": "VEC2"
    },
    {
      "bufferView": 1,
      "byteOffset": 8912352,
      "componentType": 5126,
      "count": 65532,
      "max": [
        0.9969516396522522,
        0.9979190826416016
      ],
      "min": [
        0.00212937593460083,
        0.07706654071807861
      ],
      "type": "VEC2"
    },
    {
      "bufferView": 1,
      "byteOffset": 9436608,
      "componentType": 5126,
      "count": 65532,
      "max": [
        0.9969516396522522,
        0.9979190826416016
      ],
      "min": [
        0.00212937593460083,
        0.07706654071807861
      ],
      "type": "VEC2"
    },
    {
      "bufferView": 1,
      "byteOffset": 9960864,
      "componentType": 5126,
      "count": 65532,
      "max": [
        0.9969516396522522,
        0.9979190826416016
      ],
      "min": [
        0.00212937593460083,
        0.07706654071807861
      ],
      "type": "VEC2"
    },
    {
      "bufferView": 0,
      "byteOffset": 1411332,
      "componentType": 5125,
      "count": 352779,
      "type": "SCALAR"
    },
    {
      "bufferView": 2,
      "byteOffset": 3145536,
      "componentType": 5126,
      "count": 17348,
      "max": [
        0.1126624047756195,
        0.10414932668209076,
        0.10874652862548828
      ],
      "min": [
        -0.10144122689962387,
        0.0018396228551864624,
        -0.13413918018341064
      ],
      "type": "VEC3"
    },
    {
      "bufferView": 2,
      "byteOffset": 3353712,
      "componentType": 5126,
      "count": 17348,
      "max": [
        0.9999260902404785,
        0.9999642968177795,
        0.9998670220375061
      ],
      "min": [
        -0.999943733215332,
        -0.9999179840087891,
        -0.999934196472168
      ],
      "type": "VEC3"
    },
    {
      "bufferView": 1,
      "byteOffset": 10485120,
      "componentType": 5126,
      "count": 17348,
      "max": [
        0.9975031018257141,
        0.9250549674034119
      ],
      "min": [
        0.13645288348197937,
        0.3567448854446411
      ],
      "type": "VEC2"
    },
    {
      "bufferView": 1,
      "byteOffset": 10623904,
      "componentType": 5126,
      "count": 17348,
      "max": [
        0.9975031018257141,
        0.9250549674034119
      ],
      "min": [
        0.13645288348197937,
        0.3567448854446411
      ],
      "type": "VEC2"
    },
    {
      "bufferView": 1,
      "byteOffset": 10762688,
      "componentType": 5126,
      "count": 17348,
      "max": [
        0.9975031018257141,
        0.9250549674034119
      ],
      "min": [
        0.13645288348197937,
        0.3567448854446411
      ],
      "type": "VEC2"
    },
    {
      "bufferView": 1,
      "byteOffset": 10901472,
      "componentType": 5126,
      "count": 17348,
      "max": [
        0.9975031018257141,
        0.9250549674034119
      ],
      "min": [
        0.13645288348197937,
        0.3567448854446411
      ],
      "type": "VEC2"
    },
    {
      "bufferView": 1,
      "byteOffset": 11040256,
      "componentType": 5126,
      "count": 17348,
      "max": [
        0.9975031018257141,
        0.9250549674034119
      ],
      "min": [
        0.13645288348197937,
        0.3567448854446411
      ],
      "type": "VEC2"
    },
    {
      "bufferView": 1,
      "byteOffset": 11179040,
      "componentType": 5126,
      "count": 17348,
      "max": [
        0.9975031018257141,
        0.9250549674034119
      ],
      "min": [
        0.13645288348197937,
        0.3567448854446411
      ],
      "type": "VEC2"
    },
    {
      "bufferView": 1,
      "byteOffset": 11317824,
      "componentType": 5126,
      "count": 17348,
      "max": [
        0.9975031018257141,
        0.9250549674034119
      ],
      "min": [
        0.13645288348197937,
        0.3567448854446411
      ],
      "type": "VEC2"
    },
    {
      "bufferView": 1,
      "byteOffset": 11456608,
      "componentType": 5126,
      "count": 17348,
      "max": [
        0.9975031018257141,
        0.9250549674034119
      ],
      "min": [
        0.13645288348197937,
        0.3567448854446411
      ],
      "type": "VEC2"
    },
    {
      "bufferView": 1,
      "byteOffset": 11595392,
      "componentType": 5126,
      "count": 17348,
      "max": [
        0.9975031018257141,
        0.9250549674034119
      ],
      "min": [
        0.13645288348197937,
        0.3567448854446411
      ],
      "type": "VEC2"
    },
    {
      "bufferView": 1,
      "byteOffset": 11734176,
      "componentType": 5126,
      "count": 17348,
      "max": [
        0.9975031018257141,
        0.9250549674034119
      ],
      "min": [
        0.13645288348197937,
        0.3567448854446411
      ],
      "type": "VEC2"
    },
    {
      "bufferView": 0,
      "byteOffset": 2822448,
      "componentType": 5125,
      "count": 87162,
      "type": "SCALAR"
    }
  ],
  "asset": {
    "extras": {
      "author": "KimtueKP (https://sketchfab.com/kimtuekp)",
      "license": "CC-BY-4.0 (http://creativecommons.org/licenses/by/4.0/)",
      "source": "https://sketchfab.com/3d-models/food-thai-noodle-676409cd5a7c468d89611c4621f61aee",
      "title": "Food - Thai Noodle"
    },
    "generator": "Sketchfab-15.18.0",
    "version": "2.0"
  },
  "bufferViews": [
    {
      "buffer": 0,
      "byteLength": 3171096,
      "name": "floatBufferViews",
      "target": 34963
    },
    {
      "buffer": 0,
      "byteLength": 11872960,
      "byteOffset": 3171096,
      "byteStride": 8,
      "name": "floatBufferViews",
      "target": 34962
    },
    {
      "buffer": 0,
      "byteLength": 3561888,
      "byteOffset": 15044056,
      "byteStride": 12,
      "name": "floatBufferViews",
      "target": 34962
    }
  ],
  "buffers": [
    {
      "byteLength": 18605944,
      "uri": "scene.bin"
    }
  ],
  "images": [
    {
      "uri": "textures/main_baseColor.jpeg"
    }
  ],
  "materials": [
    {
      "doubleSided": true,
      "name": "main",
      "pbrMetallicRoughness": {
        "baseColorTexture": {
          "index": 0
        },
        "metallicFactor": 0.0
      }
    }
  ],
  "meshes": [
    {
      "name": "mesh_main_0",
      "primitives": [
        {
          "attributes": {
            "NORMAL": 1,
            "POSITION": 0,
            "TEXCOORD_0": 2,
            "TEXCOORD_1": 3,
            "TEXCOORD_2": 4,
            "TEXCOORD_3": 5,
            "TEXCOORD_4": 6,
            "TEXCOORD_5": 7,
            "TEXCOORD_6": 8,
            "TEXCOORD_7": 9,
            "TEXCOORD_8": 10,
            "TEXCOORD_9": 11
          },
          "indices": 12,
          "material": 0,
          "mode": 4
        }
      ]
    },
    {
      "name": "mesh_main_0",
      "primitives": [
        {
          "attributes": {
            "NORMAL": 14,
            "POSITION": 13,
            "TEXCOORD_0": 15,
            "TEXCOORD_1": 16,
            "TEXCOORD_2": 17,
            "TEXCOORD_3": 18,
            "TEXCOORD_4": 19,
            "TEXCOORD_5": 20,
            "TEXCOORD_6": 21,
            "TEXCOORD_7": 22,
            "TEXCOORD_8": 23,
            "TEXCOORD_9": 24
          },
          "indices": 25,
          "material": 0,
          "mode": 4
        }
      ]
    },
    {
      "name": "mesh_main_0",
      "primitives": [
        {
          "attributes": {
            "NORMAL": 27,
            "POSITION": 26,
            "TEXCOORD_0": 28,
            "TEXCOORD_1": 29,
            "TEXCOORD_2": 30,
            "TEXCOORD_3": 31,
            "TEXCOORD_4": 32,
            "TEXCOORD_5": 33,
            "TEXCOORD_6": 34,
            "TEXCOORD_7": 35,
            "TEXCOORD_8": 36,
            "TEXCOORD_9": 37
          },
          "indices": 38,
          "material": 0,
          "mode": 4
        }
      ]
    }
  ],
  "nodes": [
    {
      "children": [
        1
      ],
      "matrix": [
        1.0,
        0.0,
        0.0,
        0.0,
        0.0,
        2.220446049250313e-16,
        -1.0,
        0.0,
        0.0,
        1.0,
        2.220446049250313e-16,
        0.0,
        0.0,
        0.0,
        0.0,
        1.0
      ],
      "name": "Sketchfab_model"
    },
    {
      "children": [
        2
      ],
      "matrix": [
        1.0,
        0.0,
        0.0,
        0.0,
        0.0,
        0.0,
        1.0,
        0.0,
        0.0,
        -1.0,
        0.0,
        0.0,
        0.0,
        0.0,
        0.0,
        1.0
      ],
      "name": "8b0daaae27ec42439d0587448c334509.fbx"
    },
    {
      "children": [
        3
      ],
      "name": "RootNode"
    },
    {
      "children": [
        4,
        5,
        6
      ],
      "name": "mesh"
    },
    {
      "mesh": 0,
      "name": "mesh_main_0"
    },
    {
      "mesh": 1,
      "name": "mesh_main_0"
    },
    {
      "mesh": 2,
      "name": "mesh_main_0"
    }
  ],
  "samplers": [
    {
      "magFilter": 9729,
      "minFilter": 9987,
      "wrapS": 10497,
      "wrapT": 10497
    }
  ],
  "scene": 0,
  "scenes": [
    {
      "name": "Sketchfab_Scene",
      "nodes": [
        0
      ]
    }
  ],
  "textures": [
    {
      "sampler": 0,
      "source": 0
    }
  ]
}
