{
  "accessors": [
    {
      "bufferView": 2,
      "componentType": 5126,
      "count": 20637,
      "max": [
        -12.183998107910156,
        -12.339710235595703,
        7.9128007888793945
      ],
      "min": [
        -20.13232421875,
        -20.17833137512207,
        7.427917003631592
      ],
      "type": "VEC3"
    },
    {
      "bufferView": 2,
      "byteOffset": 247644,
      "componentType": 5126,
      "count": 20637,
      "max": [
        0.9923548102378845,
        0.9978302121162415,
        0.9999971985816956
      ],
      "min": [
        -0.9994705319404602,
        -0.9996928572654724,
        -0.9999980926513672
      ],
      "type": "VEC3"
    },
    {
      "bufferView": 3,
      "componentType": 5126,
      "count": 20637,
      "max": [
        0.9999980926513672,
        0.9998197555541992,
        0.9999314546585083,
        1.0
      ],
      "min": [
        -0.9999915957450867,
        -0.9990389347076416,
        -0.9999015927314758,
        -1.0
      ],
      "type": "VEC4"
    },
    {
      "bufferView": 1,
      "componentType": 5126,
      "count": 20637,
      "max": [
        0.9975460171699524,
        0.9980570077896118
      ],
      "min": [
        0.0015810000477358699,
        0.002788000041618943
      ],
      "type": "VEC2"
    },
    {
      "bufferView": 0,
      "componentType": 5125,
      "count": 119358,
      "type": "SCALAR"
    },
    {
      "bufferView": 2,
      "byteOffset": 495288,
      "componentType": 5126,
      "count": 104,
      "max": [
        25.265710830688477,
        -9.963135719299316,
        23.785736083984375
      ],
      "min": [
        23.387577056884766,
        -11.560373306274414,
        22.721729278564453
      ],
      "type": "VEC3"
    },
    {
      "bufferView": 2,
      "byteOffset": 496536,
      "componentType": 5126,
      "count": 104,
      "max": [
        0.9990650415420532,
        0.9950681328773499,
        0.1008806973695755
      ],
      "min": [
        -0.9988641738891602,
        -0.995539128780365,
        -0.09468740969896317
      ],
      "type": "VEC3"
    },
    {
      "bufferView": 1,
      "byteOffset": 165096,
      "componentType": 5126,
      "count": 104,
      "max": [
        0.990103006362915,
        0.9995009899139404
      ],
      "min": [
        0.010005000047385693,
        0.0004990000161342323
      ],
      "type": "VEC2"
    },
    {
      "bufferView": 0,
      "byteOffset": 477432,
      "componentType": 5125,
      "count": 348,
      "type": "SCALAR"
    },
    {
      "bufferView": 2,
      "byteOffset": 497784,
      "componentType": 5126,
      "count": 2394,
      "max": [
        25.262243270874023,
        -9.932665824890137,
        24.322654724121094
      ],
      "min": [
        23.392032623291016,
        -11.561101913452148,
        22.332935333251953
      ],
      "type": "VEC3"
    },
    {
      "bufferView": 2,
      "byteOffset": 526512,
      "componentType": 5126,
      "count": 2394,
      "max": [
        0.9999057054519653,
        0.9997116327285767,
        0.9999999403953552
      ],
      "min": [
        -0.9973897337913513,
        -0.9998696446418762,
        -0.9999976754188538
      ],
      "type": "VEC3"
    },
    {
      "bufferView": 1,
      "byteOffset": 165928,
      "componentType": 5126,
      "count": 2394,
      "max": [
        64.04137420654297,
        207.18960571289063
      ],
      "min": [
        -349.4700622558594,
        -196.99346923828125
      ],
      "type": "VEC2"
    },
    {
      "bufferView": 0,
      "byteOffset": 478824,
      "componentType": 5125,
      "count": 12813,
      "type": "SCALAR"
    },
    {
      "bufferView": 2,
      "byteOffset": 555240,
      "componentType": 5126,
      "count": 27389,
      "max": [
        25.90971565246582,
        -15.88734245300293,
        9.707877159118652
      ],
      "min": [
        19.00756072998047,
        -22.140535354614258,
        -0.047244999557733536
      ],
      "type": "VEC3"
    },
    {
      "bufferView": 2,
      "byteOffset": 883908,
      "componentType": 5126,
      "count": 27389,
      "max": [
        0.9998636245727539,
        0.9997549653053284,
        1.0
      ],
      "min": [
        -0.9997256398200989,
        -0.9997425079345703,
        -0.9999886155128479
      ],
      "type": "VEC3"
    },
    {
      "bufferView": 1,
      "byteOffset": 185080,
      "componentType": 5126,
      "count": 27389,
      "max": [
        0.9979000091552734,
        0.9972289800643921
      ],
      "min": [
        0.002099999925121665,
        0.002099999925121665
      ],
      "type": "VEC2"
    },
    {
      "bufferView": 0,
      "byteOffset": 530076,
      "componentType": 5125,
      "count": 50487,
      "type": "SCALAR"
    },
    {
      "bufferView": 2,
      "byteOffset": 1212576,
      "componentType": 5126,
      "count": 22193,
      "max": [
        -24.444963455200195,
        8.145936965942383,
        9.82507610321045
      ],
      "min": [
        -33.61811065673828,
        0.004327000118792057,
        -0.04367600008845329
      ],
      "type": "VEC3"
    },
    {
      "bufferView": 2,
      "byteOffset": 1478892,
      "componentType": 5126,
      "count": 22193,
      "max": [
        0.9999628663063049,
        0.999973714351654,
        1.0
      ],
      "min": [
        -0.9999215602874756,
        -0.9999379515647888,
        -1.0
      ],
      "type": "VEC3"
    },
    {
      "bufferView": 1,
      "byteOffset": 404192,
      "componentType": 5126,
      "count": 22193,
      "max": [
        0.9914299845695496,
        0.997003972530365
      ],
      "min": [
        0.0029959999956190586,
        0.0029959999956190586
      ],
      "type": "VEC2"
    },
    {
      "bufferView": 0,
      "byteOffset": 732024,
      "componentType": 5125,
      "count": 37590,
      "type": "SCALAR"
    },
    {
      "bufferView": 2,
      "byteOffset": 1745208,
      "componentType": 5126,
      "count": 29787,
      "max": [
        -25.254318237304688,
        -0.14924299716949463,
        10.582982063293457
      ],
      "min": [
        -34.145118713378906,
        -9.874924659729004,
        -0.04676499962806702
      ],
      "type": "VEC3"
    },
    {
      "bufferView": 2,
      "byteOffset": 2102652,
      "componentType": 5126,
      "count": 29787,
      "max": [
        0.9999831318855286,
        0.9998761415481567,
        0.9999811053276062
      ],
      "min": [
        -0.9999787211418152,
        -0.9999975562095642,
        -1.0
      ],
      "type": "VEC3"
    },
    {
      "bufferView": 1,
      "byteOffset": 581736,
      "componentType": 5126,
      "count": 29787,
      "max": [
        0.9966830015182495,
        0.997003972530365
      ],
      "min": [
        0.0029959999956190586,
        0.0029959999956190586
      ],
      "type": "VEC2"
    },
    {
      "bufferView": 0,
      "byteOffset": 882384,
      "componentType": 5125,
      "count": 50778,
      "type": "SCALAR"
    },
    {
      "bufferView": 2,
      "byteOffset": 2460096,
      "componentType": 5126,
      "count": 49,
      "max": [
        -12.063343048095703,
        -0.4600810110569,
        10.512751579284668
      ],
      "min": [
        -19.476497650146484,
        -0.5850210189819336,
        3.964674949645996
      ],
      "type": "VEC3"
    },
    {
      "bufferView": 2,
      "byteOffset": 2460684,
      "componentType": 5126,
      "count": 49,
      "max": [
        1.0,
        1.0,
        0.9977874159812927
      ],
      "min": [
        -1.0,
        -0.9999991655349731,
        -0.9977878928184509
      ],
      "type": "VEC3"
    },
    {
      "bufferView": 1,
      "byteOffset": 820032,
      "componentType": 5126,
      "count": 49,
      "max": [
        0.8310739994049072,
        0.5679540038108826
      ],
      "min": [
        0.16892600059509277,
        -0.07698799669742584
      ],
      "type": "VEC2"
    },
    {
      "bufferView": 0,
      "byteOffset": 1085496,
      "componentType": 5125,
      "count": 132,
      "type": "SCALAR"
    },
    {
      "bufferView": 2,
      "byteOffset": 2461272,
      "componentType": 5126,
      "count": 9862,
      "max": [
        -2.6245710849761963,
        5.705355167388916,
        14.041844367980957
      ],
      "min": [
        -8.6953706741333,
        2.054819107055664,
        12.815052032470703
      ],
      "type": "VEC3"
    },
    {
      "bufferView": 2,
      "byteOffset": 2579616,
      "componentType": 5126,
      "count": 9862,
      "max": [
        0.997828483581543,
        0.9999052286148071,
        1.0
      ],
      "min": [
        -0.9996688961982727,
        -0.9993686079978943,
        -1.0
      ],
      "type": "VEC3"
    },
    {
      "bufferView": 1,
      "byteOffset": 820424,
      "componentType": 5126,
      "count": 9862,
      "max": [
        0.9977149963378906,
        0.9988539814949036
      ],
      "min": [
        0.0020000000949949026,
        0.0020000000949949026
      ],
      "type": "VEC2"
    },
    {
      "bufferView": 0,
      "byteOffset": 1086024,
      "componentType": 5125,
      "count": 50952,
      "type": "SCALAR"
    },
    {
      "bufferView": 2,
      "byteOffset": 2697960,
      "componentType": 5126,
      "count": 20747,
      "max": [
        26.38438606262207,
        8.387410163879395,
        32.66787338256836
      ],
      "min": [
        -24.44072723388672,
        -15.313894271850586,
        -0.0663290023803711
      ],
      "type": "VEC3"
    },
    {
      "bufferView": 2,
      "byteOffset": 2946924,
      "componentType": 5126,
      "count": 20747,
      "max": [
        1.0,
        1.0,
        1.0
      ],
      "min": [
        -1.0,
        -1.0,
        -1.0
      ],
      "type": "VEC3"
    },
    {
      "bufferView": 3,
      "byteOffset": 330192,
      "componentType": 5126,
      "count": 20747,
      "max": [
        1.0,
        1.0,
        1.0,
        1.0
      ],
      "min": [
        -1.0,
        -1.0,
        -1.0,
        -1.0
      ],
      "type": "VEC4"
    },
    {
      "bufferView": 1,
      "byteOffset": 899320,
      "componentType": 5126,
      "count": 20747,
      "max": [
        0.9974880218505859,
        0.9979000091552734
      ],
      "min": [
        0.002099999925121665,
        0.002099999925121665
      ],
      "type": "VEC2"
    },
    {
      "bufferView": 0,
      "byteOffset": 1289832,
      "componentType": 5125,
      "count": 55599,
      "type": "SCALAR"
    },
    {
      "bufferView": 2,
      "byteOffset": 3195888,
      "componentType": 5126,
      "count": 7657,
      "max": [
        -11.15222454071045,
        7.90388298034668,
        35.762657165527344
      ],
      "min": [
        -20.183002471923828,
        -1.5286400318145752,
        3.4405159950256348
      ],
      "type": "VEC3"
    },
    {
      "bufferView": 2,
      "byteOffset": 3287772,
      "componentType": 5126,
      "count": 7657,
      "max": [
        1.0,
        1.0,
        1.0
      ],
      "min": [
        -1.0,
        -1.0,
        -1.0
      ],
      "type": "VEC3"
    },
    {
      "bufferView": 1,
      "byteOffset": 1065296,
      "componentType": 5126,
      "count": 7657,
      "max": [
        0.9980000257492065,
        0.9816709756851196
      ],
      "min": [
        -0.0016759999562054873,
        -0.001686000032350421
      ],
      "type": "VEC2"
    },
    {
      "bufferView": 0,
      "byteOffset": 1512228,
      "componentType": 5125,
      "count": 30144,
      "type": "SCALAR"
    },
    {
      "bufferView": 2,
      "byteOffset": 3379656,
      "componentType": 5126,
      "count": 160,
      "max": [
        3.5161399841308594,
        7.951557159423828,
        18.805456161499023
      ],
      "min": [
        -0.21796399354934692,
        7.84539794921875,
        17.690706253051758
      ],
      "type": "VEC3"
    },
    {
      "bufferView": 2,
      "byteOffset": 3381576,
      "componentType": 5126,
      "count": 160,
      "max": [
        0.9999459981918335,
        0.07158584147691727,
        0.9974349141120911
      ],
      "min": [
        -0.9999884366989136,
        -0.997440755367279,
        -0.9974343180656433
      ],
      "type": "VEC3"
    },
    {
      "bufferView": 1,
      "byteOffset": 1126552,
      "componentType": 5126,
      "count": 160,
      "max": [
        7.337810421244443e+24,
        0.0
      ],
      "min": [
        7.337810421244443e+24,
        0.0
      ],
      "type": "VEC2"
    },
    {
      "bufferView": 0,
      "byteOffset": 1632804,
      "componentType": 5125,
      "count": 330,
      "type": "SCALAR"
    },
    {
      "bufferView": 2,
      "byteOffset": 3383496,
      "componentType": 5126,
      "count": 302,
      "max": [
        25.203689575195313,
        -9.996886253356934,
        24.054794311523438
      ],
      "min": [
        23.465028762817383,
        -11.509398460388184,
        22.38134002685547
      ],
      "type": "VEC3"
    },
    {
      "bufferView": 2,
      "byteOffset": 3387120,
      "componentType": 5126,
      "count": 302,
      "max": [
        0.9986556172370911,
        0.9991939663887024,
        0.9999999403953552
      ],
      "min": [
        -0.9995570182800293,
        -0.9945555925369263,
        -0.9999998211860657
      ],
      "type": "VEC3"
    },
    {
      "bufferView": 1,
      "byteOffset": 1127832,
      "componentType": 5126,
      "count": 302,
      "max": [
        52.180870056152344,
        152.77761840820313
      ],
      "min": [
        -332.6009216308594,
        -187.16046142578125
      ],
      "type": "VEC2"
    },
    {
      "bufferView": 0,
      "byteOffset": 1634124,
      "componentType": 5125,
      "count": 1716,
      "type": "SCALAR"
    },
    {
      "bufferView": 2,
      "byteOffset": 3390744,
      "componentType": 5126,
      "count": 4,
      "max": [
        26.42401885986328,
        8.390302658081055,
        0.025397999212145805
      ],
      "min": [
        -35.416194915771484,
        -26.769792556762695,
        0.025397999212145805
      ],
      "type": "VEC3"
    },
    {
      "bufferView": 2,
      "byteOffset": 3390792,
      "componentType": 5126,
      "count": 4,
      "max": [
        0.0,
        0.0,
        1.0
      ],
      "min": [
        0.0,
        0.0,
        1.0
      ],
      "type": "VEC3"
    },
    {
      "bufferView": 3,
      "byteOffset": 662144,
      "componentType": 5126,
      "count": 4,
      "max": [
        0.7071072459220886,
        -0.707106351852417,
        0.0,
        1.0
      ],
      "min": [
        0.7071071863174438,
        -0.707106351852417,
        0.0,
        1.0
      ],
      "type": "VEC4"
    },
    {
      "bufferView": 1,
      "byteOffset": 1130248,
      "componentType": 5126,
      "count": 4,
      "max": [
        3.153493881225586,
        3.2348780632019043
      ],
      "min": [
        -2.153493881225586,
        -2.2348780632019043
      ],
      "type": "VEC2"
    },
    {
      "bufferView": 0,
      "byteOffset": 1640988,
      "componentType": 5125,
      "count": 6,
      "type": "SCALAR"
    },
    {
      "bufferView": 2,
      "byteOffset": 3390840,
      "componentType": 5126,
      "count": 1592,
      "max": [
        26.373441696166992,
        8.36221981048584,
        19.9132080078125
      ],
      "min": [
        -24.382307052612305,
        -15.183648109436035,
        12.812189102172852
      ],
      "type": "VEC3"
    },
    {
      "bufferView": 2,
      "byteOffset": 3409944,
      "componentType": 5126,
      "count": 1592,
      "max": [
        0.6525366902351379,
        0.6525296568870544,
        0.652532160282135
      ],
      "min": [
        -0.9993717670440674,
        -0.9994357228279114,
        -0.652532160282135
      ],
      "type": "VEC3"
    },
    {
      "bufferView": 1,
      "byteOffset": 1130280,
      "componentType": 5126,
      "count": 1592,
      "max": [
        0.9965000152587891,
        0.9970120191574097
      ],
      "min": [
        0.002982999896630645,
        0.0010000000474974513
      ],
      "type": "VEC2"
    },
    {
      "bufferView": 0,
      "byteOffset": 1641012,
      "componentType": 5125,
      "count": 3960,
      "type": "SCALAR"
    },
    {
      "bufferView": 2,
      "byteOffset": 3429048,
      "componentType": 5126,
      "count": 7220,
      "max": [
        -13.73723316192627,
        0.8566110134124756,
        13.188680648803711
      ],
      "min": [
        -17.597993850708008,
        0.24843299388885498,
        12.932550430297852
      ],
      "type": "VEC3"
    },
    {
      "bufferView": 2,
      "byteOffset": 3515688,
      "componentType": 5126,
      "count": 7220,
      "max": [
        0.9992748498916626,
        0.9975204467773438,
        1.0
      ],
      "min": [
        -0.999931812286377,
        -0.9975192546844482,
        -0.8871380686759949
      ],
      "type": "VEC3"
    },
    {
      "bufferView": 1,
      "byteOffset": 1143016,
      "componentType": 5126,
      "count": 7220,
      "max": [
        1.0833330154418945,
        1.0
      ],
      "min": [
        0.06698700040578842,
        0.0
      ],
      "type": "VEC2"
    },
    {
      "bufferView": 0,
      "byteOffset": 1656852,
      "componentType": 5125,
      "count": 41280,
      "type": "SCALAR"
    },
    {
      "bufferView": 2,
      "byteOffset": 3602328,
      "componentType": 5126,
      "count": 4,
      "max": [
        26.42401885986328,
        8.390289306640625,
        35.933738708496094
      ],
      "min": [
        -35.416194915771484,
        -26.769805908203125,
        35.93373107910156
      ],
      "type": "VEC3"
    },
    {
      "bufferView": 2,
      "byteOffset": 3602376,
      "componentType": 5126,
      "count": 4,
      "max": [
        0.0,
        -2.1699015917420184e-07,
        -1.0
      ],
      "min": [
        0.0,
        -2.1699015917420184e-07,
        -1.0
      ],
      "type": "VEC3"
    },
    {
      "bufferView": 3,
      "byteOffset": 662208,
      "componentType": 5126,
      "count": 4,
      "max": [
        0.7071070671081543,
        0.7071065902709961,
        -1.5343515258336993e-07,
        1.0
      ],
      "min": [
        0.7071070075035095,
        0.7071064710617065,
        -1.5343516679422464e-07,
        1.0
      ],
      "type": "VEC4"
    },
    {
      "bufferView": 1,
      "byteOffset": 1200776,
      "componentType": 5126,
      "count": 4,
      "max": [
        1.5374640226364136,
        1.5692830085754395
      ],
      "min": [
        -0.5374640226364136,
        -0.5692830085754395
      ],
      "type": "VEC2"
    },
    {
      "bufferView": 0,
      "byteOffset": 1821972,
      "componentType": 5125,
      "count": 6,
      "type": "SCALAR"
    },
    {
      "bufferView": 2,
      "byteOffset": 3602424,
      "componentType": 5126,
      "count": 29752,
      "max": [
        20.194774627685547,
        6.82464599609375,
        13.492206573486328
      ],
      "min": [
        -19.66122817993164,
        -0.9143360257148743,
        10.402067184448242
      ],
      "type": "VEC3"
    },
    {
      "bufferView": 2,
      "byteOffset": 3959448,
      "componentType": 5126,
      "count": 29752,
      "max": [
        1.0,
        1.0,
        1.0
      ],
      "min": [
        -1.0,
        -1.0,
        -1.0
      ],
      "type": "VEC3"
    },
    {
      "bufferView": 1,
      "byteOffset": 1200808,
      "componentType": 5126,
      "count": 29752,
      "max": [
        2.07259202003479,
        1.0652170181274414
      ],
      "min": [
        -0.08333300054073334,
        0.0
      ],
      "type": "VEC2"
    },
    {
      "bufferView": 0,
      "byteOffset": 1821996,
      "componentType": 5125,
      "count": 147636,
      "type": "SCALAR"
    },
    {
      "bufferView": 2,
      "byteOffset": 4316472,
      "componentType": 5126,
      "count": 1415,
      "max": [
        25.121946334838867,
        -9.992934226989746,
        24.63933753967285
      ],
      "min": [
        23.532947540283203,
        -11.517037391662598,
        24.118045806884766
      ],
      "type": "VEC3"
    },
    {
      "bufferView": 2,
      "byteOffset": 4333452,
      "componentType": 5126,
      "count": 1415,
      "max": [
        0.999161422252655,
        0.9989217519760132,
        0.9999939799308777
      ],
      "min": [
        -0.9992484450340271,
        -0.9993731379508972,
        -0.9999829530715942
      ],
      "type": "VEC3"
    },
    {
      "bufferView": 3,
      "byteOffset": 662272,
      "componentType": 5126,
      "count": 1415,
      "max": [
        0.5631723403930664,
        0.9999426603317261,
        0.9998937249183655,
        1.0
      ],
      "min": [
        -0.9999827146530151,
        -0.7869982123374939,
        -0.9985486268997192,
        -1.0
      ],
      "type": "VEC4"
    },
    {
      "bufferView": 1,
      "byteOffset": 1438824,
      "componentType": 5126,
      "count": 1415,
      "max": [
        0.9993280172348022,
        0.9994999766349792
      ],
      "min": [
        0.0009089999948628247,
        0.0005150000215508044
      ],
      "type": "VEC2"
    },
    {
      "bufferView": 0,
      "byteOffset": 2412540,
      "componentType": 5125,
      "count": 7743,
      "type": "SCALAR"
    },
    {
      "bufferView": 2,
      "byteOffset": 4350432,
      "componentType": 5126,
      "count": 96,
      "max": [
        22.58892822265625,
        4.367546081542969,
        31.767200469970703
      ],
      "min": [
        -23.380643844604492,
        -8.559531211853027,
        23.041431427001953
      ],
      "type": "VEC3"
    },
    {
      "bufferView": 2,
      "byteOffset": 4351584,
      "componentType": 5126,
      "count": 96,
      "max": [
        1.0,
        1.0,
        1.0
      ],
      "min": [
        -1.0,
        -1.0,
        -1.0
      ],
      "type": "VEC3"
    },
    {
      "bufferView": 1,
      "byteOffset": 1450144,
      "componentType": 5126,
      "count": 96,
      "max": [
        0.802200973033905,
        1.0773119926452637
      ],
      "min": [
        0.10107400268316269,
        0.7149360179901123
      ],
      "type": "VEC2"
    },
    {
      "bufferView": 0,
      "byteOffset": 2443512,
      "componentType": 5125,
      "count": 144,
      "type": "SCALAR"
    },
    {
      "bufferView": 2,
      "byteOffset": 4352736,
      "componentType": 5126,
      "count": 4440,
      "max": [
        -11.504532814025879,
        -11.700297355651855,
        15.829835891723633
      ],
      "min": [
        -21.629953384399414,
        -21.148914337158203,
        -0.08515100181102753
      ],
      "type": "VEC3"
    },
    {
      "bufferView": 2,
      "byteOffset": 4406016,
      "componentType": 5126,
      "count": 4440,
      "max": [
        0.9998432993888855,
        0.9999336004257202,
        0.9999862313270569
      ],
      "min": [
        -0.9998288750648499,
        -0.9999633431434631,
        -0.9999862313270569
      ],
      "type": "VEC3"
    },
    {
      "bufferView": 3,
      "byteOffset": 684912,
      "componentType": 5126,
      "count": 4440,
      "max": [
        0.9999985694885254,
        0.9995564222335815,
        1.0,
        1.0
      ],
      "min": [
        -0.9993546009063721,
        -0.9997408390045166,
        -1.0,
        -1.0
      ],
      "type": "VEC4"
    },
    {
      "bufferView": 1,
      "byteOffset": 1450912,
      "componentType": 5126,
      "count": 4440,
      "max": [
        0.9985340237617493,
        0.9972140192985535
      ],
      "min": [
        0.0025339999701827765,
        0.01862500049173832
      ],
      "type": "VEC2"
    },
    {
      "bufferView": 0,
      "byteOffset": 2444088,
      "componentType": 5125,
      "count": 18312,
      "type": "SCALAR"
    },
    {
      "bufferView": 2,
      "byteOffset": 4459296,
      "componentType": 5126,
      "count": 18780,
      "max": [
        25.15823745727539,
        -3.0740270614624023,
        14.411182403564453
      ],
      "min": [
        19.119009017944336,
        -10.227514266967773,
        12.813217163085938
      ],
      "type": "VEC3"
    },
    {
      "bufferView": 2,
      "byteOffset": 4684656,
      "componentType": 5126,
      "count": 18780,
      "max": [
        0.9999844431877136,
        0.9917990565299988,
        1.0
      ],
      "min": [
        -0.9994681477546692,
        -0.9999457001686096,
        -1.0
      ],
      "type": "VEC3"
    },
    {
      "bufferView": 1,
      "byteOffset": 1486432,
      "componentType": 5126,
      "count": 18780,
      "max": [
        0.99406498670578,
        0.9946100115776062
      ],
      "min": [
        0.002099999925121665,
        0.002099999925121665
      ],
      "type": "VEC2"
    },
    {
      "bufferView": 0,
      "byteOffset": 2517336,
      "componentType": 5125,
      "count": 42336,
      "type": "SCALAR"
    },
    {
      "bufferView": 2,
      "byteOffset": 4910016,
      "componentType": 5126,
      "count": 7590,
      "max": [
        4.034823894500732,
        8.226917266845703,
        19.63679313659668
      ],
      "min": [
        -0.5480440258979797,
        7.158023834228516,
        14.880427360534668
      ],
      "type": "VEC3"
    },
    {
      "bufferView": 2,
      "byteOffset": 5001096,
      "componentType": 5126,
      "count": 7590,
      "max": [
        1.0,
        1.0,
        1.0
      ],
      "min": [
        -1.0,
        -1.0,
        -1.0
      ],
      "type": "VEC3"
    },
    {
      "bufferView": 1,
      "byteOffset": 1636672,
      "componentType": 5126,
      "count": 7590,
      "max": [
        7.337810421244443e+24,
        0.0
      ],
      "min": [
        7.337810421244443e+24,
        0.0
      ],
      "type": "VEC2"
    },
    {
      "bufferView": 0,
      "byteOffset": 2686680,
      "componentType": 5125,
      "count": 27990,
      "type": "SCALAR"
    },
    {
      "bufferView": 2,
      "byteOffset": 5092176,
      "componentType": 5126,
      "count": 15207,
      "max": [
        25.604175567626953,
        8.357218742370605,
        16.250947952270508
      ],
      "min": [
        10.969490051269531,
        0.6545929908752441,
        10.237136840820313
      ],
      "type": "VEC3"
    },
    {
      "bufferView": 2,
      "byteOffset": 5274660,
      "componentType": 5126,
      "count": 15207,
      "max": [
        1.0,
        1.0,
        1.0
      ],
      "min": [
        -1.0,
        -1.0,
        -1.0
      ],
      "type": "VEC3"
    },
    {
      "bufferView": 1,
      "byteOffset": 1697392,
      "componentType": 5126,
      "count": 15207,
      "max": [
        1.0833330154418945,
        1.0
      ],
      "min": [
        -0.08333300054073334,
        0.0
      ],
      "type": "VEC2"
    },
    {
      "bufferView": 0,
      "byteOffset": 2798640,
      "componentType": 5125,
      "count": 86928,
      "type": "SCALAR"
    },
    {
      "bufferView": 2,
      "byteOffset": 5457144,
      "componentType": 5126,
      "count": 2306,
      "max": [
        16.25495147705078,
        8.464997291564941,
        23.519874572753906
      ],
      "min": [
        12.482699394226074,
        4.692745208740234,
        23.19450569152832
      ],
      "type": "VEC3"
    },
    {
      "bufferView": 2,
      "byteOffset": 5484816,
      "componentType": 5126,
      "count": 2306,
      "max": [
        0.9981668591499329,
        0.9981691837310791,
        1.0
      ],
      "min": [
        -0.9981691241264343,
        -0.9981679916381836,
        -1.0
      ],
      "type": "VEC3"
    },
    {
      "bufferView": 1,
      "byteOffset": 1819048,
      "componentType": 5126,
      "count": 2306,
      "max": [
        1.0009729862213135,
        1.0009729862213135
      ],
      "min": [
        -0.0009730000165291131,
        -0.0009730000165291131
      ],
      "type": "VEC2"
    },
    {
      "bufferView": 0,
      "byteOffset": 3146352,
      "componentType": 5125,
      "count": 13824,
      "type": "SCALAR"
    },
    {
      "bufferView": 2,
      "byteOffset": 5512488,
      "componentType": 5126,
      "count": 2306,
      "max": [
        16.25495147705078,
        8.464997291564941,
        23.8179931640625
      ],
      "min": [
        12.482699394226074,
        4.692745208740234,
        23.492624282836914
      ],
      "type": "VEC3"
    },
    {
      "bufferView": 2,
      "byteOffset": 5540160,
      "componentType": 5126,
      "count": 2306,
      "max": [
        0.9981668591499329,
        0.9981691837310791,
        1.0
      ],
      "min": [
        -0.9981691241264343,
        -0.9981679916381836,
        -1.0
      ],
      "type": "VEC3"
    },
    {
      "bufferView": 1,
      "byteOffset": 1837496,
      "componentType": 5126,
      "count": 2306,
      "max": [
        1.0009729862213135,
        1.0009729862213135
      ],
      "min": [
        -0.0009730000165291131,
        -0.0009730000165291131
      ],
      "type": "VEC2"
    },
    {
      "bufferView": 0,
      "byteOffset": 3201648,
      "componentType": 5125,
      "count": 13824,
      "type": "SCALAR"
    },
    {
      "bufferView": 2,
      "byteOffset": 5567832,
      "componentType": 5126,
      "count": 2306,
      "max": [
        16.25495147705078,
        8.464997291564941,
        24.116111755371094
      ],
      "min": [
        12.482699394226074,
        4.692745208740234,
        23.790742874145508
      ],
      "type": "VEC3"
    },
    {
      "bufferView": 2,
      "byteOffset": 5595504,
      "componentType": 5126,
      "count": 2306,
      "max": [
        0.9981668591499329,
        0.9981691837310791,
        1.0
      ],
      "min": [
        -0.9981691241264343,
        -0.9981679916381836,
        -1.0
      ],
      "type": "VEC3"
    },
    {
      "bufferView": 1,
      "byteOffset": 1855944,
      "componentType": 5126,
      "count": 2306,
      "max": [
        1.0009729862213135,
        1.0009729862213135
      ],
      "min": [
        -0.0009730000165291131,
        -0.0009730000165291131
      ],
      "type": "VEC2"
    },
    {
      "bufferView": 0,
      "byteOffset": 3256944,
      "componentType": 5125,
      "count": 13824,
      "type": "SCALAR"
    },
    {
      "bufferView": 2,
      "byteOffset": 5623176,
      "componentType": 5126,
      "count": 2306,
      "max": [
        16.25495147705078,
        8.464997291564941,
        24.414228439331055
      ],
      "min": [
        12.482699394226074,
        4.692745208740234,
        24.08885955810547
      ],
      "type": "VEC3"
    },
    {
      "bufferView": 2,
      "byteOffset": 5650848,
      "componentType": 5126,
      "count": 2306,
      "max": [
        0.9981668591499329,
        0.9981691837310791,
        1.0
      ],
      "min": [
        -0.9981691241264343,
        -0.9981679916381836,
        -1.0
      ],
      "type": "VEC3"
    },
    {
      "bufferView": 1,
      "byteOffset": 1874392,
      "componentType": 5126,
      "count": 2306,
      "max": [
        1.0009729862213135,
        1.0009729862213135
      ],
      "min": [
        -0.0009730000165291131,
        -0.0009730000165291131
      ],
      "type": "VEC2"
    },
    {
      "bufferView": 0,
      "byteOffset": 3312240,
      "componentType": 5125,
      "count": 13824,
      "type": "SCALAR"
    },
    {
      "bufferView": 2,
      "byteOffset": 5678520,
      "componentType": 5126,
      "count": 2306,
      "max": [
        16.25495147705078,
        8.464997291564941,
        24.71234703063965
      ],
      "min": [
        12.482699394226074,
        4.692745208740234,
        24.386978149414063
      ],
      "type": "VEC3"
    },
    {
      "bufferView": 2,
      "byteOffset": 5706192,
      "componentType": 5126,
      "count": 2306,
      "max": [
        0.9981668591499329,
        0.9981691837310791,
        1.0
      ],
      "min": [
        -0.9981691241264343,
        -0.9981679916381836,
        -1.0
      ],
      "type": "VEC3"
    },
    {
      "bufferView": 1,
      "byteOffset": 1892840,
      "componentType": 5126,
      "count": 2306,
      "max": [
        1.0009729862213135,
        1.0009729862213135
      ],
      "min": [
        -0.0009730000165291131,
        -0.0009730000165291131
      ],
      "type": "VEC2"
    },
    {
      "bufferView": 0,
      "byteOffset": 3367536,
      "componentType": 5125,
      "count": 13824,
      "type": "SCALAR"
    },
    {
      "bufferView": 2,
      "byteOffset": 5733864,
      "componentType": 5126,
      "count": 2306,
      "max": [
        9.212117195129395,
        8.464997291564941,
        13.105993270874023
      ],
      "min": [
        5.439864158630371,
        4.692745208740234,
        12.780621528625488
      ],
      "type": "VEC3"
    },
    {
      "bufferView": 2,
      "byteOffset": 5761536,
      "componentType": 5126,
      "count": 2306,
      "max": [
        0.9981685876846313,
        0.9981693625450134,
        1.0
      ],
      "min": [
        -0.9981708526611328,
        -0.9981682896614075,
        -1.0
      ],
      "type": "VEC3"
    },
    {
      "bufferView": 1,
      "byteOffset": 1911288,
      "componentType": 5126,
      "count": 2306,
      "max": [
        1.0009729862213135,
        1.0009729862213135
      ],
      "min": [
        -0.0009730000165291131,
        -0.0009730000165291131
      ],
      "type": "VEC2"
    },
    {
      "bufferView": 0,
      "byteOffset": 3422832,
      "componentType": 5125,
      "count": 13824,
      "type": "SCALAR"
    },
    {
      "bufferView": 2,
      "byteOffset": 5789208,
      "componentType": 5126,
      "count": 2306,
      "max": [
        16.25495147705078,
        8.464997291564941,
        23.221757888793945
      ],
      "min": [
        12.482699394226074,
        4.692745208740234,
        22.89638900756836
      ],
      "type": "VEC3"
    },
    {
      "bufferView": 2,
      "byteOffset": 5816880,
      "componentType": 5126,
      "count": 2306,
      "max": [
        0.9981668591499329,
        0.9981691837310791,
        1.0
      ],
      "min": [
        -0.9981691241264343,
        -0.9981679916381836,
        -1.0
      ],
      "type": "VEC3"
    },
    {
      "bufferView": 1,
      "byteOffset": 1929736,
      "componentType": 5126,
      "count": 2306,
      "max": [
        1.0009729862213135,
        1.0009729862213135
      ],
      "min": [
        -0.0009730000165291131,
        -0.0009730000165291131
      ],
      "type": "VEC2"
    },
    {
      "bufferView": 0,
      "byteOffset": 3478128,
      "componentType": 5125,
      "count": 13824,
      "type": "SCALAR"
    },
    {
      "bufferView": 2,
      "byteOffset": 5844552,
      "componentType": 5126,
      "count": 8,
      "max": [
        26.424026489257813,
        8.404621124267578,
        35.93373489379883
      ],
      "min": [
        -35.416194915771484,
        -26.769794464111328,
        0.025397999212145805
      ],
      "type": "VEC3"
    },
    {
      "bufferView": 2,
      "byteOffset": 5844648,
      "componentType": 5126,
      "count": 8,
      "max": [
        0.0,
        5.4225456125323035e-08,
        -1.593514866726764e-07
      ],
      "min": [
        -1.0,
        -1.0,
        -1.859100393630797e-07
      ],
      "type": "VEC3"
    },
    {
      "bufferView": 3,
      "byteOffset": 755952,
      "componentType": 5126,
      "count": 8,
      "max": [
        1.0,
        0.0,
        1.077738147614582e-06,
        1.0
      ],
      "min": [
        -5.422561599743858e-08,
        -1.0,
        0.0,
        1.0
      ],
      "type": "VEC4"
    },
    {
      "bufferView": 1,
      "byteOffset": 1948184,
      "componentType": 5126,
      "count": 8,
      "max": [
        1.0,
        1.0
      ],
      "min": [
        0.0,
        0.0
      ],
      "type": "VEC2"
    },
    {
      "bufferView": 0,
      "byteOffset": 3533424,
      "componentType": 5125,
      "count": 12,
      "type": "SCALAR"
    }
  ],
  "asset": {
    "extras": {
      "author": "Francesco Coldesina (https://sketchfab.com/topfrank2013)",
      "license": "CC-BY-4.0 (http://creativecommons.org/licenses/by/4.0/)",
      "source": "https://sketchfab.com/3d-models/italian-kitchen-dae9cb7efc4c406e88a9e33ef1d6c9c0",
      "title": "Italian Kitchen"
    },
    "generator": "Sketchfab-12.65.0",
    "version": "2.0"
  },
  "bufferViews": [
    {
      "buffer": 0,
      "byteLength": 3533472,
      "name": "floatBufferViews",
      "target": 34963
    },
    {
      "buffer": 0,
      "byteLength": 1948248,
      "byteOffset": 3533472,
      "byteStride": 8,
      "name": "floatBufferViews",
      "target": 34962
    },
    {
      "buffer": 0,
      "byteLength": 5844744,
      "byteOffset": 5481720,
      "byteStride": 12,
      "name": "floatBufferViews",
      "target": 34962
    },
    {
      "buffer": 0,
      "byteLength": 756080,
      "byteOffset": 11326464,
      "byteStride": 16,
      "name": "floatBufferViews",
      "target": 34962
    }
  ],
  "buffers": [
    {
      "byteLength": 12082544,
      "uri": "scene.bin"
    }
  ],
  "images": [
    {
      "uri": "textures/CoverPaglia1_baseColor.jpeg"
    },
    {
      "uri": "textures/CoverPaglia1_normal.png"
    },
    {
      "uri": "textures/Etiquette_nutella_baseColor.jpeg"
    },
    {
      "uri": "textures/GamlaGialla_A01_baseColor.jpeg"
    },
    {
      "uri": "textures/Gamla_Rosa_Liscia_D1_baseColor.jpeg"
    },
    {
      "uri": "textures/Gamla_Tonda_Red_A1_baseColor.jpeg"
    },
    {
      "uri": "textures/Internonero_baseColor.jpeg"
    },
    {
      "uri": "textures/Internonero_metallicRoughness.png"
    },
    {
      "uri": "textures/K0_End01_baseColor.jpeg"
    },
    {
      "uri": "textures/K0_End01_normal.png"
    },
    {
      "uri": "textures/Metal1_baseColor.jpeg"
    },
    {
      "uri": "textures/Pavimento01_baseColor.jpeg"
    },
    {
      "uri": "textures/Pavimento01_metallicRoughness.png"
    },
    {
      "uri": "textures/Pavimento01_normal.png"
    },
    {
      "uri": "textures/Piastrelle001_baseColor.jpeg"
    },
    {
      "uri": "textures/Piastrelle001_metallicRoughness.png"
    },
    {
      "uri": "textures/Piatto01_baseColor.jpeg"
    },
    {
      "uri": "textures/Soffitto01_normal.png"
    },
    {
      "uri": "textures/Tappo_normal.png"
    },
    {
      "uri": "textures/Walls01_baseColor.jpeg"
    },
    {
      "uri": "textures/WoodSedia1_baseColor.jpeg"
    },
    {
      "uri": "textures/WoodSedia1_normal.png"
    },
    {
      "uri": "textures/wooden_desk_baseColor.png"
    },
    {
      "uri": "textures/wooden_desk_emissive.jpeg"
    }
  ],
  "materials": [
    {
      "doubleSided": true,
      "emissiveTexture": {
        "index": 0
      },
      "name": "CoverPaglia1",
      "normalTexture": {
        "index": 1
      },
      "pbrMetallicRoughness": {
        "baseColorTexture": {
          "index": 0
        },
        "metallicFactor": 0.0,
        "roughnessFactor": 0.9610288568297003
      }
    },
    {
      "doubleSided": true,
      "name": "Etiquette_nutella",
      "pbrMetallicRoughness": {
        "baseColorTexture": {
          "index": 2
        },
        "metallicFactor": 0.0
      }
    },
    {
      "alphaMode": "BLEND",
      "doubleSided": true,
      "name": "GLASS",
      "pbrMetallicRoughness": {
        "baseColorFactor": [
          0.564706,
          0.564706,
          0.564706,
          0.15
        ],
        "metallicFactor": 0.0,
        "roughnessFactor": 0.7841638618757912
      }
    },
    {
      "doubleSided": true,
      "emissiveTexture": {
        "index": 3
      },
      "name": "GamlaGialla_A01",
      "pbrMetallicRoughness": {
        "baseColorTexture": {
          "index": 3
        },
        "metallicFactor": 0.0
      }
    },
    {
      "doubleSided": true,
      "emissiveTexture": {
        "index": 4
      },
      "name": "Gamla_Rosa_Liscia_D1",
      "pbrMetallicRoughness": {
        "baseColorTexture": {
          "index": 4
        },
        "metallicFactor": 0.0
      }
    },
    {
      "doubleSided": true,
      "emissiveTexture": {
        "index": 5
      },
      "name": "Gamla_Tonda_Red_A1",
      "pbrMetallicRoughness": {
        "baseColorTexture": {
          "index": 5
        },
        "metallicFactor": 0.0
      }
    },
    {
      "alphaMode": "BLEND",
      "doubleSided": true,
      "name": "Glass_Azzurro_01",
      "pbrMetallicRoughness": {
        "baseColorFactor": [
          0.019608,
          0.019608,
          0.019608,
          0.5
        ],
        "metallicFactor": 0.0,
        "roughnessFactor": 0.7431477160044969
      }
    },
    {
      "doubleSided": true,
      "emissiveTexture": {
        "index": 6
      },
      "name": "Internonero",
      "pbrMetallicRoughness": {
        "baseColorTexture": {
          "index": 6
        },
        "metallicFactor": 0.3858612804878049,
        "metallicRoughnessTexture": {
          "index": 7
        }
      }
    },
    {
      "doubleSided": true,
      "emissiveTexture": {
        "index": 8
      },
      "name": "K0_End01",
      "normalTexture": {
        "index": 9
      },
      "pbrMetallicRoughness": {
        "baseColorTexture": {
          "index": 8
        },
        "metallicFactor": 0.0,
        "roughnessFactor": 0.960246352845121
      }
    },
    {
      "doubleSided": true,
      "emissiveTexture": {
        "index": 10
      },
      "name": "Metal1",
      "pbrMetallicRoughness": {
        "baseColorTexture": {
          "index": 10
        },
        "roughnessFactor": 0.7808457372591544
      }
    },
    {
      "doubleSided": true,
      "name": "Metal_Chrome",
      "pbrMetallicRoughness": {
        "baseColorFactor": [
          0.3636653735842167,
          0.3636653735842167,
          0.3636653735842167,
          1.0
        ],
        "roughnessFactor": 0.28185268004052894
      }
    },
    {
      "doubleSided": true,
      "name": "Nero",
      "pbrMetallicRoughness": {
        "baseColorFactor": [
          0.066667,
          0.066667,
          0.066667,
          1.0
        ],
        "metallicFactor": 0.0,
        "roughnessFactor": 0.8453238622173194
      }
    },
    {
      "doubleSided": true,
      "name": "Pate_nutella",
      "pbrMetallicRoughness": {
        "baseColorFactor": [
          0.223529,
          0.152941,
          0.031373,
          1.0
        ],
        "metallicFactor": 0.0
      }
    },
    {
      "doubleSided": true,
      "emissiveTexture": {
        "index": 11
      },
      "name": "Pavimento01",
      "normalTexture": {
        "index": 13
      },
      "occlusionTexture": {
        "index": 12
      },
      "pbrMetallicRoughness": {
        "baseColorTexture": {
          "index": 11
        },
        "metallicFactor": 0.0,
        "metallicRoughnessTexture": {
          "index": 12
        },
        "roughnessFactor": 0.9028737378441061
      }
    },
    {
      "doubleSided": true,
      "emissiveTexture": {
        "index": 14
      },
      "name": "Piastrelle001",
      "pbrMetallicRoughness": {
        "baseColorTexture": {
          "index": 14
        },
        "metallicFactor": 0.0,
        "metallicRoughnessTexture": {
          "index": 15
        }
      }
    },
    {
      "doubleSided": true,
      "emissiveTexture": {
        "index": 16
      },
      "name": "Piatto01",
      "pbrMetallicRoughness": {
        "baseColorTexture": {
          "index": 16
        },
        "metallicFactor": 0.0,
        "roughnessFactor": 0.8913368618755112
      }
    },
    {
      "doubleSided": true,
      "name": "Scuro01",
      "pbrMetallicRoughness": {
        "baseColorFactor": [
          0.0,
          0.0,
          0.0,
          1.0
        ],
        "metallicFactor": 0.0,
        "roughnessFactor": 0.728147253510378
      }
    },
    {
      "doubleSided": true,
      "name": "Soffitto01",
      "normalTexture": {
        "index": 17
      },
      "pbrMetallicRoughness": {
        "baseColorFactor": [
          0.882353,
          0.882353,
          0.882353,
          1.0
        ],
        "metallicFactor": 0.0,
        "roughnessFactor": 0.9547934739224523
      }
    },
    {
      "doubleSided": true,
      "name": "Standardmaterial",
      "pbrMetallicRoughness": {
        "baseColorFactor": [
          0.352941,
          0.352941,
          0.352941,
          1.0
        ]
      }
    },
    {
      "doubleSided": true,
      "name": "Tappo",
      "normalTexture": {
        "index": 18
      },
      "pbrMetallicRoughness": {
        "metallicFactor": 0.0
      }
    },
    {
      "alphaMode": "BLEND",
      "doubleSided": true,
      "name": "Vetri01",
      "pbrMetallicRoughness": {
        "baseColorFactor": [
          0.658824,
          0.803922,
          0.690196,
          0.14462652439024395
        ],
        "metallicFactor": 0.07488567073170732,
        "roughnessFactor": 0.6812118902439024
      }
    },
    {
      "doubleSided": true,
      "name": "Walls01",
      "normalTexture": {
        "index": 17,
        "scale": 0.45903201219512196
      },
      "pbrMetallicRoughness": {
        "baseColorTexture": {
          "index": 19
        },
        "metallicFactor": 0.0,
        "roughnessFactor": 0.9353827048521184
      }
    },
    {
      "doubleSided": true,
      "emissiveTexture": {
        "index": 20
      },
      "name": "WoodSedia1",
      "normalTexture": {
        "index": 21
      },
      "pbrMetallicRoughness": {
        "baseColorTexture": {
          "index": 20
        },
        "metallicFactor": 0.0,
        "metallicRoughnessTexture": {
          "index": 15
        }
      }
    },
    {
      "alphaMode": "BLEND",
      "doubleSided": true,
      "emissiveTexture": {
        "index": 23
      },
      "name": "wooden_desk",
      "pbrMetallicRoughness": {
        "baseColorTexture": {
          "index": 22
        },
        "metallicFactor": 0.0
      }
    }
  ],
  "meshes": [
    {
      "name": "Object_0",
      "primitives": [
        {
          "attributes": {
            "NORMAL": 1,
            "POSITION": 0,
            "TANGENT": 2,
            "TEXCOORD_0": 3
          },
          "indices": 4,
          "material": 0,
          "mode": 4
        }
      ]
    },
    {
      "name": "Object_1",
      "primitives": [
        {
          "attributes": {
            "NORMAL": 6,
            "POSITION": 5,
            "TEXCOORD_0": 7
          },
          "indices": 8,
          "material": 1,
          "mode": 4
        }
      ]
    },
    {
      "name": "Object_2",
      "primitives": [
        {
          "attributes": {
            "NORMAL": 10,
            "POSITION": 9,
            "TEXCOORD_0": 11
          },
          "indices": 12,
          "material": 2,
          "mode": 4
        }
      ]
    },
    {
      "name": "Object_3",
      "primitives": [
        {
          "attributes": {
            "NORMAL": 14,
            "POSITION": 13,
            "TEXCOORD_0": 15
          },
          "indices": 16,
          "material": 3,
          "mode": 4
        }
      ]
    },
    {
      "name": "Object_4",
      "primitives": [
        {
          "attributes": {
            "NORMAL": 18,
            "POSITION": 17,
            "TEXCOORD_0": 19
          },
          "indices": 20,
          "material": 4,
          "mode": 4
        }
      ]
    },
    {
      "name": "Object_5",
      "primitives": [
        {
          "attributes": {
            "NORMAL": 22,
            "POSITION": 21,
            "TEXCOORD_0": 23
          },
          "indices": 24,
          "material": 5,
          "mode": 4
        }
      ]
    },
    {
      "name": "Object_6",
      "primitives": [
        {
          "attributes": {
            "NORMAL": 26,
            "POSITION": 25,
            "TEXCOORD_0": 27
          },
          "indices": 28,
          "material": 6,
          "mode": 4
        }
      ]
    },
    {
      "name": "Object_7",
      "primitives": [
        {
          "attributes": {
            "NORMAL": 30,
            "POSITION": 29,
            "TEXCOORD_0": 31
          },
          "indices": 32,
          "material": 7,
          "mode": 4
        }
      ]
    },
    {
      "name": "Object_8",
      "primitives": [
        {
          "attributes": {
            "NORMAL": 34,
            "POSITION": 33,
            "TANGENT": 35,
            "TEXCOORD_0": 36
          },
          "indices": 37,
          "material": 8,
          "mode": 4
        }
      ]
    },
    {
      "name": "Object_9",
      "primitives": [
        {
          "attributes": {
            "NORMAL": 39,
            "POSITION": 38,
            "TEXCOORD_0": 40
          },
          "indices": 41,
          "material": 9,
          "mode": 4
        }
      ]
    },
    {
      "name": "Object_10",
      "primitives": [
        {
          "attributes": {
            "NORMAL": 43,
            "POSITION": 42,
            "TEXCOORD_0": 44
          },
          "indices": 45,
          "material": 11,
          "mode": 4
        }
      ]
    },
    {
      "name": "Object_11",
      "primitives": [
        {
          "attributes": {
            "NORMAL": 47,
            "POSITION": 46,
            "TEXCOORD_0": 48
          },
          "indices": 49,
          "material": 12,
          "mode": 4
        }
      ]
    },
    {
      "name": "Object_12",
      "primitives": [
        {
          "attributes": {
            "NORMAL": 51,
            "POSITION": 50,
            "TANGENT": 52,
            "TEXCOORD_0": 53
          },
          "indices": 54,
          "material": 13,
          "mode": 4
        }
      ]
    },
    {
      "name": "Object_13",
      "primitives": [
        {
          "attributes": {
            "NORMAL": 56,
            "POSITION": 55,
            "TEXCOORD_0": 57
          },
          "indices": 58,
          "material": 14,
          "mode": 4
        }
      ]
    },
    {
      "name": "Object_14",
      "primitives": [
        {
          "attributes": {
            "NORMAL": 60,
            "POSITION": 59,
            "TEXCOORD_0": 61
          },
          "indices": 62,
          "material": 16,
          "mode": 4
        }
      ]
    },
    {
      "name": "Object_15",
      "primitives": [
        {
          "attributes": {
            "NORMAL": 64,
            "POSITION": 63,
            "TANGENT": 65,
            "TEXCOORD_0": 66
          },
          "indices": 67,
          "material": 17,
          "mode": 4
        }
      ]
    },
    {
      "name": "Object_16",
      "primitives": [
        {
          "attributes": {
            "NORMAL": 69,
            "POSITION": 68,
            "TEXCOORD_0": 70
          },
          "indices": 71,
          "material": 18,
          "mode": 4
        }
      ]
    },
    {
      "name": "Object_17",
      "primitives": [
        {
          "attributes": {
            "NORMAL": 73,
            "POSITION": 72,
            "TANGENT": 74,
            "TEXCOORD_0": 75
          },
          "indices": 76,
          "material": 19,
          "mode": 4
        }
      ]
    },
    {
      "name": "Object_18",
      "primitives": [
        {
          "attributes": {
            "NORMAL": 78,
            "POSITION": 77,
            "TEXCOORD_0": 79
          },
          "indices": 80,
          "material": 20,
          "mode": 4
        }
      ]
    },
    {
      "name": "Object_19",
      "primitives": [
        {
          "attributes": {
            "NORMAL": 82,
            "POSITION": 81,
            "TANGENT": 83,
            "TEXCOORD_0": 84
          },
          "indices": 85,
          "material": 22,
          "mode": 4
        }
      ]
    },
    {
      "name": "Object_20",
      "primitives": [
        {
          "attributes": {
            "NORMAL": 87,
            "POSITION": 86,
            "TEXCOORD_0": 88
          },
          "indices": 89,
          "material": 23,
          "mode": 4
        }
      ]
    },
    {
      "name": "Object_21",
      "primitives": [
        {
          "attributes": {
            "NORMAL": 91,
            "POSITION": 90,
            "TEXCOORD_0": 92
          },
          "indices": 93,
          "material": 10,
          "mode": 4
        }
      ]
    },
    {
      "name": "Object_22",
      "primitives": [
        {
          "attributes": {
            "NORMAL": 95,
            "POSITION": 94,
            "TEXCOORD_0": 96
          },
          "indices": 97,
          "material": 10,
          "mode": 4
        }
      ]
    },
    {
      "name": "Object_23",
      "primitives": [
        {
          "attributes": {
            "NORMAL": 99,
            "POSITION": 98,
            "TEXCOORD_0": 100
          },
          "indices": 101,
          "material": 15,
          "mode": 4
        }
      ]
    },
    {
      "name": "Object_24",
      "primitives": [
        {
          "attributes": {
            "NORMAL": 103,
            "POSITION": 102,
            "TEXCOORD_0": 104
          },
          "indices": 105,
          "material": 15,
          "mode": 4
        }
      ]
    },
    {
      "name": "Object_25",
      "primitives": [
        {
          "attributes": {
            "NORMAL": 107,
            "POSITION": 106,
            "TEXCOORD_0": 108
          },
          "indices": 109,
          "material": 15,
          "mode": 4
        }
      ]
    },
    {
      "name": "Object_26",
      "primitives": [
        {
          "attributes": {
            "NORMAL": 111,
            "POSITION": 110,
            "TEXCOORD_0": 112
          },
          "indices": 113,
          "material": 15,
          "mode": 4
        }
      ]
    },
    {
      "name": "Object_27",
      "primitives": [
        {
          "attributes": {
            "NORMAL": 115,
            "POSITION": 114,
            "TEXCOORD_0": 116
          },
          "indices": 117,
          "material": 15,
          "mode": 4
        }
      ]
    },
    {
      "name": "Object_28",
      "primitives": [
        {
          "attributes": {
            "NORMAL": 119,
            "POSITION": 118,
            "TEXCOORD_0": 120
          },
          "indices": 121,
          "material": 15,
          "mode": 4
        }
      ]
    },
    {
      "name": "Object_29",
      "primitives": [
        {
          "attributes": {
            "NORMAL": 123,
            "POSITION": 122,
            "TEXCOORD_0": 124
          },
          "indices": 125,
          "material": 15,
          "mode": 4
        }
      ]
    },
    {
      "name": "Object_30",
      "primitives": [
        {
          "attributes": {
            "NORMAL": 127,
            "POSITION": 126,
            "TANGENT": 128,
            "TEXCOORD_0": 129
          },
          "indices": 130,
          "material": 21,
          "mode": 4
        }
      ]
    }
  ],
  "nodes": [
    {
      "children": [
        1
      ],
      "matrix": [
        1.0,
        0.0,
        0.0,
        0.0,
        0.0,
        2.220446049250313e-16,
        -1.0,
        0.0,
        0.0,
        1.0,
        2.220446049250313e-16,
        0.0,
        0.0,
        0.0,
        0.0,
        1.0
      ],
      "name": "Sketchfab_model"
    },
    {
      "children": [
        2,
        3,
        4,
        5,
        6,
        7,
        8,
        9,
        10,
        11,
        12,
        13,
        14,
        15,
        16,
        17,
        18,
        19,
        20,
        21,
        22,
        23,
        24,
        25,
        26,
        27,
        28,
        29,
        30,
        31,
        32
      ],
      "name": "Kitchen Italian A1.obj.cleaner.materialmerger.gles"
    },
    {
      "mesh": 0,
      "name": "Object_2"
    },
    {
      "mesh": 1,
      "name": "Object_3"
    },
    {
      "mesh": 2,
      "name": "Object_4"
    },
    {
      "mesh": 3,
      "name": "Object_5"
    },
    {
      "mesh": 4,
      "name": "Object_6"
    },
    {
      "mesh": 5,
      "name": "Object_7"
    },
    {
      "mesh": 6,
      "name": "Object_8"
    },
    {
      "mesh": 7,
      "name": "Object_9"
    },
    {
      "mesh": 8,
      "name": "Object_10"
    },
    {
      "mesh": 9,
      "name": "Object_11"
    },
    {
      "mesh": 10,
      "name": "Object_12"
    },
    {
      "mesh": 11,
      "name": "Object_13"
    },
    {
      "mesh": 12,
      "name": "Object_14"
    },
    {
      "mesh": 13,
      "name": "Object_15"
    },
    {
      "mesh": 14,
      "name": "Object_16"
    },
    {
      "mesh": 15,
      "name": "Object_17"
    },
    {
      "mesh": 16,
      "name": "Object_18"
    },
    {
      "mesh": 17,
      "name": "Object_19"
    },
    {
      "mesh": 18,
      "name": "Object_20"
    },
    {
      "mesh": 19,
      "name": "Object_21"
    },
    {
      "mesh": 20,
      "name": "Object_22"
    },
    {
      "mesh": 21,
      "name": "Object_23"
    },
    {
      "mesh": 22,
      "name": "Object_24"
    },
    {
      "mesh": 23,
      "name": "Object_25"
    },
    {
      "mesh": 24,
      "name": "Object_26"
    },
    {
      "mesh": 25,
      "name": "Object_27"
    },
    {
      "mesh": 26,
      "name": "Object_28"
    },
    {
      "mesh": 27,
      "name": "Object_29"
    },
    {
      "mesh": 28,
      "name": "Object_30"
    },
    {
      "mesh": 29,
      "name": "Object_31"
    },
    {
      "mesh": 30,
      "name": "Object_32"
    }
  ],
  "samplers": [
    {
      "magFilter": 9729,
      "minFilter": 9987,
      "wrapS": 10497,
      "wrapT": 10497
    }
  ],
  "scene": 0,
  "scenes": [
    {
      "name": "Sketchfab_Scene",
      "nodes": [
        0
      ]
    }
  ],
  "textures": [
    {
      "sampler": 0,
      "source": 0
    },
    {
      "sampler": 0,
      "source": 1
    },
    {
      "sampler": 0,
      "source": 2
    },
    {
      "sampler": 0,
      "source": 3
    },
    {
      "sampler": 0,
      "source": 4
    },
    {
      "sampler": 0,
      "source": 5
    },
    {
      "sampler": 0,
      "source": 6
    },
    {
      "sampler": 0,
      "source": 7
    },
    {
      "sampler": 0,
      "source": 8
    },
    {
      "sampler": 0,
      "source": 9
    },
    {
      "sampler": 0,
      "source": 10
    },
    {
      "sampler": 0,
      "source": 11
    },
    {
      "sampler": 0,
      "source": 12
    },
    {
      "sampler": 0,
      "source": 13
    },
    {
      "sampler": 0,
      "source": 14
    },
    {
      "sampler": 0,
      "source": 15
    },
    {
      "sampler": 0,
      "source": 16
    },
    {
      "sampler": 0,
      "source": 17
    },
    {
      "sampler": 0,
      "source": 18
    },
    {
      "sampler": 0,
      "source": 19
    },
    {
      "sampler": 0,
      "source": 20
    },
    {
      "sampler": 0,
      "source": 21
    },
    {
      "sampler": 0,
      "source": 22
    },
    {
      "sampler": 0,
      "source": 23
    }
  ]
}
