{
  "accessors": [
    {
      "bufferView": 2,
      "componentType": 5126,
      "count": 65532,
      "max": [
        0.1476730853319168,
        0.0704382061958313,
        0.17529673874378204
      ],
      "min": [
        -0.11730034649372101,
        0.010051392018795013,
        -0.17621909081935883
      ],
      "type": "VEC3"
    },
    {
      "bufferView": 2,
      "byteOffset": 786384,
      "componentType": 5126,
      "count": 65532,
      "max": [
        0.9999908208847046,
        0.9999991059303284,
        0.9999825358390808
      ],
      "min": [
        -0.9999083876609802,
        -0.9724692702293396,
        -0.999840259552002
      ],
      "type": "VEC3"
    },
    {
      "bufferView": 1,
      "componentType": 5126,
      "count": 65532,
      "max": [
        0.9977357387542725,
        0.9958460330963135
      ],
      "min": [
        0.0021141022443771362,
        0.11595451831817627
      ],
      "type": "VEC2"
    },
    {
      "bufferView": 1,
      "byteOffset": 524256,
      "componentType": 5126,
      "count": 65532,
      "max": [
        0.9977357387542725,
        0.9958460330963135
      ],
      "min": [
        0.0021141022443771362,
        0.11595451831817627
      ],
      "type": "VEC2"
    },
    {
      "bufferView": 1,
      "byteOffset": 1048512,
      "componentType": 5126,
      "count": 65532,
      "max": [
        0.9977357387542725,
        0.9958460330963135
      ],
      "min": [
        0.0021141022443771362,
        0.11595451831817627
      ],
      "type": "VEC2"
    },
    {
      "bufferView": 1,
      "byteOffset": 1572768,
      "componentType": 5126,
      "count": 65532,
      "max": [
        0.9977357387542725,
        0.9958460330963135
      ],
      "min": [
        0.0021141022443771362,
        0.11595451831817627
      ],
      "type": "VEC2"
    },
    {
      "bufferView": 1,
      "byteOffset": 2097024,
      "componentType": 5126,
      "count": 65532,
      "max": [
        0.9977357387542725,
        0.9958460330963135
      ],
      "min": [
        0.0021141022443771362,
        0.11595451831817627
      ],
      "type": "VEC2"
    },
    {
      "bufferView": 1,
      "byteOffset": 2621280,
      "componentType": 5126,
      "count": 65532,
      "max": [
        0.9977357387542725,
        0.9958460330963135
      ],
      "min": [
        0.0021141022443771362,
        0.11595451831817627
      ],
      "type": "VEC2"
    },
    {
      "bufferView": 1,
      "byteOffset": 3145536,
      "componentType": 5126,
      "count": 65532,
      "max": [
        0.9977357387542725,
        0.9958460330963135
      ],
      "min": [
        0.0021141022443771362,
        0.11595451831817627
      ],
      "type": "VEC2"
    },
    {
      "bufferView": 1,
      "byteOffset": 3669792,
      "componentType": 5126,
      "count": 65532,
      "max": [
        0.9977357387542725,
        0.9958460330963135
      ],
      "min": [
        0.0021141022443771362,
        0.11595451831817627
      ],
      "type": "VEC2"
    },
    {
      "bufferView": 1,
      "byteOffset": 4194048,
      "componentType": 5126,
      "count": 65532,
      "max": [
        0.9977357387542725,
        0.9958460330963135
      ],
      "min": [
        0.0021141022443771362,
        0.11595451831817627
      ],
      "type": "VEC2"
    },
    {
      "bufferView": 1,
      "byteOffset": 4718304,
      "componentType": 5126,
      "count": 65532,
      "max": [
        0.9977357387542725,
        0.9958460330963135
      ],
      "min": [
        0.0021141022443771362,
        0.11595451831817627
      ],
      "type": "VEC2"
    },
    {
      "bufferView": 0,
      "componentType": 5125,
      "count": 348396,
      "type": "SCALAR"
    },
    {
      "bufferView": 2,
      "byteOffset": 1572768,
      "componentType": 5126,
      "count": 12935,
      "max": [
        0.1403624713420868,
        0.07025967538356781,
        0.14544451236724854
      ],
      "min": [
        -0.11684475839138031,
        0.010051392018795013,
        -0.16665706038475037
      ],
      "type": "VEC3"
    },
    {
      "bufferView": 2,
      "byteOffset": 1727988,
      "componentType": 5126,
      "count": 12935,
      "max": [
        0.9997285604476929,
        0.9999974966049194,
        0.9999827146530151
      ],
      "min": [
        -0.9999838471412659,
        -0.8393344283103943,
        -0.9994395971298218
      ],
      "type": "VEC3"
    },
    {
      "bufferView": 1,
      "byteOffset": 5242560,
      "componentType": 5126,
      "count": 12935,
      "max": [
        0.9768080711364746,
        0.7724197506904602
      ],
      "min": [
        0.0349719375371933,
        0.17458152770996094
      ],
      "type": "VEC2"
    },
    {
      "bufferView": 1,
      "byteOffset": 5346040,
      "componentType": 5126,
      "count": 12935,
      "max": [
        0.9768080711364746,
        0.7724197506904602
      ],
      "min": [
        0.0349719375371933,
        0.17458152770996094
      ],
      "type": "VEC2"
    },
    {
      "bufferView": 1,
      "byteOffset": 5449520,
      "componentType": 5126,
      "count": 12935,
      "max": [
        0.9768080711364746,
        0.7724197506904602
      ],
      "min": [
        0.0349719375371933,
        0.17458152770996094
      ],
      "type": "VEC2"
    },
    {
      "bufferView": 1,
      "byteOffset": 5553000,
      "componentType": 5126,
      "count": 12935,
      "max": [
        0.9768080711364746,
        0.7724197506904602
      ],
      "min": [
        0.0349719375371933,
        0.17458152770996094
      ],
      "type": "VEC2"
    },
    {
      "bufferView": 1,
      "byteOffset": 5656480,
      "componentType": 5126,
      "count": 12935,
      "max": [
        0.9768080711364746,
        0.7724197506904602
      ],
      "min": [
        0.0349719375371933,
        0.17458152770996094
      ],
      "type": "VEC2"
    },
    {
      "bufferView": 1,
      "byteOffset": 5759960,
      "componentType": 5126,
      "count": 12935,
      "max": [
        0.9768080711364746,
        0.7724197506904602
      ],
      "min": [
        0.0349719375371933,
        0.17458152770996094
      ],
      "type": "VEC2"
    },
    {
      "bufferView": 1,
      "byteOffset": 5863440,
      "componentType": 5126,
      "count": 12935,
      "max": [
        0.9768080711364746,
        0.7724197506904602
      ],
      "min": [
        0.0349719375371933,
        0.17458152770996094
      ],
      "type": "VEC2"
    },
    {
      "bufferView": 1,
      "byteOffset": 5966920,
      "componentType": 5126,
      "count": 12935,
      "max": [
        0.9768080711364746,
        0.7724197506904602
      ],
      "min": [
        0.0349719375371933,
        0.17458152770996094
      ],
      "type": "VEC2"
    },
    {
      "bufferView": 1,
      "byteOffset": 6070400,
      "componentType": 5126,
      "count": 12935,
      "max": [
        0.9768080711364746,
        0.7724197506904602
      ],
      "min": [
        0.0349719375371933,
        0.17458152770996094
      ],
      "type": "VEC2"
    },
    {
      "bufferView": 1,
      "byteOffset": 6173880,
      "componentType": 5126,
      "count": 12935,
      "max": [
        0.9768080711364746,
        0.7724197506904602
      ],
      "min": [
        0.0349719375371933,
        0.17458152770996094
      ],
      "type": "VEC2"
    },
    {
      "bufferView": 0,
      "byteOffset": 1393584,
      "componentType": 5125,
      "count": 66795,
      "type": "SCALAR"
    }
  ],
  "asset": {
    "extras": {
      "author": "JFN (https://sketchfab.com/db4)",
      "license": "CC-BY-4.0 (http://creativecommons.org/licenses/by/4.0/)",
      "source": "https://sketchfab.com/3d-models/crackling-roast-pork-belly-rice-scaniverse-4c3567b9e6104f1ab2bf42b6db5e5cbc",
      "title": "Crackling Roast Pork Belly Rice (Scaniverse)"
    },
    "generator": "Sketchfab-16.9.0",
    "version": "2.0"
  },
  "bufferViews": [
    {
      "buffer": 0,
      "byteLength": 1660764,
      "name": "floatBufferViews",
      "target": 34963
    },
    {
      "buffer": 0,
      "byteLength": 6277360,
      "byteOffset": 1660764,
      "byteStride": 8,
      "name": "floatBufferViews",
      "target": 34962
    },
    {
      "buffer": 0,
      "byteLength": 1883208,
      "byteOffset": 7938124,
      "byteStride": 12,
      "name": "floatBufferViews",
      "target": 34962
    }
  ],
  "buffers": [
    {
      "byteLength": 9821332,
      "uri": "scene.bin"
    }
  ],
  "extensionsUsed": [
    "KHR_materials_unlit"
  ],
  "images": [
    {
      "uri": "textures/main_baseColor.jpeg"
    }
  ],
  "materials": [
    {
      "doubleSided": true,
      "extensions": {
        "KHR_materials_unlit": {}
      },
      "name": "main",
      "pbrMetallicRoughness": {
        "baseColorTexture": {
          "index": 0
        },
        "metallicFactor": 0.0
      }
    }
  ],
  "meshes": [
    {
      "name": "mesh_main_0",
      "primitives": [
        {
          "attributes": {
            "NORMAL": 1,
            "POSITION": 0,
            "TEXCOORD_0": 2,
            "TEXCOORD_1": 3,
            "TEXCOORD_2": 4,
            "TEXCOORD_3": 5,
            "TEXCOORD_4": 6,
            "TEXCOORD_5": 7,
            "TEXCOORD_6": 8,
            "TEXCOORD_7": 9,
            "TEXCOORD_8": 10,
            "TEXCOORD_9": 11
          },
          "indices": 12,
          "material": 0,
          "mode": 4
        }
      ]
    },
    {
      "name": "mesh_main_0",
      "primitives": [
        {
          "attributes": {
            "NORMAL": 14,
            "POSITION": 13,
            "TEXCOORD_0": 15,
            "TEXCOORD_1": 16,
            "TEXCOORD_2": 17,
            "TEXCOORD_3": 18,
            "TEXCOORD_4": 19,
            "TEXCOORD_5": 20,
            "TEXCOORD_6": 21,
            "TEXCOORD_7": 22,
            "TEXCOORD_8": 23,
            "TEXCOORD_9": 24
          },
          "indices": 25,
          "material": 0,
          "mode": 4
        }
      ]
    }
  ],
  "nodes": [
    {
      "children": [
        1
      ],
      "matrix": [
        1.0,
        0.0,
        0.0,
        0.0,
        0.0,
        2.220446049250313e-16,
        -1.0,
        0.0,
        0.0,
        1.0,
        2.220446049250313e-16,
        0.0,
        0.0,
        0.0,
        0.0,
        1.0
      ],
      "name": "Sketchfab_model"
    },
    {
      "children": [
        2
      ],
      "matrix": [
        1.0,
        0.0,
        0.0,
        0.0,
        0.0,
        0.0,
        1.0,
        0.0,
        0.0,
        -1.0,
        0.0,
        0.0,
        0.0,
        0.0,
        0.0,
        1.0
      ],
      "name": "b7502856e4154cd2a93da3ffbae3e106.fbx"
    },
    {
      "children": [
        3
      ],
      "name": "RootNode"
    },
    {
      "children": [
        4,
        5
      ],
      "name": "mesh"
    },
    {
      "mesh": 0,
      "name": "mesh_main_0"
    },
    {
      "mesh": 1,
      "name": "mesh_main_0"
    }
  ],
  "samplers": [
    {
      "magFilter": 9729,
      "minFilter": 9987,
      "wrapS": 10497,
      "wrapT": 10497
    }
  ],
  "scene": 0,
  "scenes": [
    {
      "name": "Sketchfab_Scene",
      "nodes": [
        0
      ]
    }
  ],
  "textures": [
    {
      "sampler": 0,
      "source": 0
    }
  ]
}
