{
  "accessors": [
    {
      "bufferView": 2,
      "componentType": 5126,
      "count": 3991,
      "max": [
        0.2535629868507385,
        0.25361499190330505,
        0.10014799982309341
      ],
      "min": [
        -0.25359299778938293,
        -0.25353699922561646,
        0.013898000121116638
      ],
      "type": "VEC3"
    },
    {
      "bufferView": 2,
      "byteOffset": 47892,
      "componentType": 5126,
      "count": 3991,
      "max": [
        0.9995086789131165,
        0.9963003396987915,
        0.9999641180038452
      ],
      "min": [
        -0.9752056002616882,
        -0.983810544013977,
        -0.6757283806800842
      ],
      "type": "VEC3"
    },
    {
      "bufferView": 3,
      "componentType": 5126,
      "count": 3991,
      "max": [
        0.671461284160614,
        0.9838115572929382,
        0.9938206672668457,
        1.0
      ],
      "min": [
        -0.9999819397926331,
        -0.9941386580467224,
        -0.9995195269584656,
        -1.0
      ],
      "type": "VEC4"
    },
    {
      "bufferView": 1,
      "componentType": 5126,
      "count": 3991,
      "max": [
        0.9340639710426331,
        0.9342010021209717
      ],
      "min": [
        0.06582800298929214,
        0.06582900136709213
      ],
      "type": "VEC2"
    },
    {
      "bufferView": 0,
      "componentType": 5125,
      "count": 23589,
      "type": "SCALAR"
    },
    {
      "bufferView": 2,
      "byteOffset": 95784,
      "componentType": 5126,
      "count": 2586,
      "max": [
        0.2979370057582855,
        0.2979370057582855,
        0.053676001727581024
      ],
      "min": [
        -0.2979370057582855,
        -0.2979370057582855,
        0.00046400001156143844
      ],
      "type": "VEC3"
    },
    {
      "bufferView": 2,
      "byteOffset": 126816,
      "componentType": 5126,
      "count": 2586,
      "max": [
        0.9621853232383728,
        0.9621853232383728,
        1.0
      ],
      "min": [
        -0.9621853232383728,
        -0.9621853232383728,
        -1.0
      ],
      "type": "VEC3"
    },
    {
      "bufferView": 1,
      "byteOffset": 31928,
      "componentType": 5126,
      "count": 2586,
      "max": [
        0.9946029782295227,
        0.9829919934272766
      ],
      "min": [
        0.004395999945700169,
        0.006787000223994255
      ],
      "type": "VEC2"
    },
    {
      "bufferView": 0,
      "byteOffset": 94356,
      "componentType": 5125,
      "count": 15072,
      "type": "SCALAR"
    },
    {
      "bufferView": 2,
      "byteOffset": 157848,
      "componentType": 5126,
      "count": 504,
      "max": [
        0.2687990069389343,
        0.2687990069389343,
        0.047488998621702194
      ],
      "min": [
        -0.2687990069389343,
        -0.2687990069389343,
        0.016227999702095985
      ],
      "type": "VEC3"
    },
    {
      "bufferView": 2,
      "byteOffset": 163896,
      "componentType": 5126,
      "count": 504,
      "max": [
        0.4928940236568451,
        0.4928940236568451,
        0.9996741414070129
      ],
      "min": [
        -0.4928940236568451,
        -0.4928940236568451,
        0.8700487017631531
      ],
      "type": "VEC3"
    },
    {
      "bufferView": 1,
      "byteOffset": 52616,
      "componentType": 5126,
      "count": 504,
      "max": [
        0.9502789974212646,
        0.9502789974212646
      ],
      "min": [
        0.04972099885344505,
        0.04972099885344505
      ],
      "type": "VEC2"
    },
    {
      "bufferView": 0,
      "byteOffset": 154644,
      "componentType": 5125,
      "count": 2592,
      "type": "SCALAR"
    }
  ],
  "asset": {
    "extras": {
      "author": "PiyalakNuchim (https://sketchfab.com/PiyalakNuchim)",
      "license": "CC-BY-4.0 (http://creativecommons.org/licenses/by/4.0/)",
      "source": "https://sketchfab.com/3d-models/pad-thai-41ecc0e94287457fac4cbaad41013ca9",
      "title": "Pad Thai"
    },
    "generator": "Sketchfab-15.38.0",
    "version": "2.0"
  },
  "bufferViews": [
    {
      "buffer": 0,
      "byteLength": 165012,
      "name": "floatBufferViews",
      "target": 34963
    },
    {
      "buffer": 0,
      "byteLength": 56648,
      "byteOffset": 165012,
      "byteStride": 8,
      "name": "floatBufferViews",
      "target": 34962
    },
    {
      "buffer": 0,
      "byteLength": 169944,
      "byteOffset": 221660,
      "byteStride": 12,
      "name": "floatBufferViews",
      "target": 34962
    },
    {
      "buffer": 0,
      "byteLength": 63856,
      "byteOffset": 391604,
      "byteStride": 16,
      "name": "floatBufferViews",
      "target": 34962
    }
  ],
  "buffers": [
    {
      "byteLength": 455460,
      "uri": "scene.bin"
    }
  ],
  "images": [
    {
      "uri": "textures/PadThai_baseColor.png"
    },
    {
      "uri": "textures/PadThai_metallicRoughness.png"
    },
    {
      "uri": "textures/PadThai_normal.png"
    },
    {
      "uri": "textures/Plate_Black_metallicRoughness.png"
    },
    {
      "uri": "textures/Plate_Black_decal_baseColor.png"
    }
  ],
  "materials": [
    {
      "alphaCutoff": 0.9310504565347246,
      "alphaMode": "MASK",
      "doubleSided": true,
      "name": "PadThai",
      "normalTexture": {
        "index": 2
      },
      "occlusionTexture": {
        "index": 1
      },
      "pbrMetallicRoughness": {
        "baseColorTexture": {
          "index": 0
        },
        "metallicFactor": 0.0,
        "metallicRoughnessTexture": {
          "index": 1
        }
      }
    },
    {
      "doubleSided": true,
      "name": "Plate_Black",
      "pbrMetallicRoughness": {
        "baseColorFactor": [
          0.017641954488384078,
          0.017641954488384078,
          0.017641954488384078,
          1.0
        ],
        "metallicFactor": 0.0,
        "metallicRoughnessTexture": {
          "index": 3
        }
      }
    },
    {
      "alphaCutoff": 0.7603832697394887,
      "alphaMode": "MASK",
      "doubleSided": true,
      "name": "Plate_Black_decal",
      "pbrMetallicRoughness": {
        "baseColorTexture": {
          "index": 4
        },
        "metallicFactor": 0.0,
        "roughnessFactor": 0.4
      }
    }
  ],
  "meshes": [
    {
      "name": "Object_0",
      "primitives": [
        {
          "attributes": {
            "NORMAL": 1,
            "POSITION": 0,
            "TANGENT": 2,
            "TEXCOORD_0": 3
          },
          "indices": 4,
          "material": 0,
          "mode": 4
        }
      ]
    },
    {
      "name": "Object_1",
      "primitives": [
        {
          "attributes": {
            "NORMAL": 6,
            "POSITION": 5,
            "TEXCOORD_0": 7
          },
          "indices": 8,
          "material": 1,
          "mode": 4
        }
      ]
    },
    {
      "name": "Object_2",
      "primitives": [
        {
          "attributes": {
            "NORMAL": 10,
            "POSITION": 9,
            "TEXCOORD_0": 11
          },
          "indices": 12,
          "material": 2,
          "mode": 4
        }
      ]
    }
  ],
  "nodes": [
    {
      "children": [
        1
      ],
      "matrix": [
        1.0,
        0.0,
        0.0,
        0.0,
        0.0,
        2.220446049250313e-16,
        -1.0,
        0.0,
        0.0,
        1.0,
        2.220446049250313e-16,
        0.0,
        0.0,
        0.0,
        0.0,
        1.0
      ],
      "name": "Sketchfab_model"
    },
    {
      "children": [
        2,
        3,
        4
      ],
      "name": "PadThai.obj.cleaner.materialmerger.gles"
    },
    {
      "mesh": 0,
      "name": "Object_2"
    },
    {
      "mesh": 1,
      "name": "Object_3"
    },
    {
      "mesh": 2,
      "name": "Object_4"
    }
  ],
  "samplers": [
    {
      "magFilter": 9729,
      "minFilter": 9987,
      "wrapS": 10497,
      "wrapT": 10497
    }
  ],
  "scene": 0,
  "scenes": [
    {
      "name": "Sketchfab_Scene",
      "nodes": [
        0
      ]
    }
  ],
  "textures": [
    {
      "sampler": 0,
      "source": 0
    },
    {
      "sampler": 0,
      "source": 1
    },
    {
      "sampler": 0,
      "source": 2
    },
    {
      "sampler": 0,
      "source": 3
    },
    {
      "sampler": 0,
      "source": 4
    }
  ]
}
